<?xml version="1.0" standalone="no"?>
<!DOCTYPE svg PUBLIC "-//W3C//DTD SVG 1.1//EN" "http://www.w3.org/Graphics/SVG/1.1/DTD/svg11.dtd" >
<svg>
<metadata>
Created by FontForge 20090914 at Mon Oct 10 13:01:52 2016
 By www-data
Copyright &#194;&#169; Consultations Inc. Astana, 2003. All rights reserved.
</metadata>
<defs>
<font id="TextBook.kz" horiz-adv-x="2925" >
  <font-face 
    font-family="TextBook.kz"
    font-weight="400"
    font-stretch="normal"
    units-per-em="4096"
    panose-1="2 0 5 6 0 0 0 2 0 3"
    ascent="3276"
    descent="-820"
    x-height="1913"
    cap-height="2867"
    bbox="-0.000976562 -901 3957 3588"
    underline-thickness="56"
    underline-position="-192"
    unicode-range="U+0015-U+2122"
  />
<missing-glyph horiz-adv-x="2048" 
d="M256 0v2933h1536v-2933h-1536zM512 256h1024v2421h-1024v-2421z" />
    <glyph glyph-name=".notdef" horiz-adv-x="2048" 
d="M256 0v2933h1536v-2933h-1536zM512 256h1024v2421h-1024v-2421z" />
    <glyph glyph-name="NAK" horiz-adv-x="0" 
 />
    <glyph glyph-name="ETB" horiz-adv-x="0" 
 />
    <glyph glyph-name="EM" horiz-adv-x="0" 
 />
    <glyph glyph-name="space" unicode=" " horiz-adv-x="1438" 
 />
    <glyph glyph-name="exclam" unicode="!" horiz-adv-x="1122" 
d="M766 786h-414v2081h414v-2081zM283 197c0 71.333 25.833 132.833 77.5 184.5s113.167 77.5 184.5 77.5s132.833 -25.833 184.5 -77.5s77.5 -113.167 77.5 -184.5s-25.833 -133 -77.5 -185s-113.167 -78 -184.5 -78s-132.833 26 -184.5 78s-77.5 113.667 -77.5 185z" />
    <glyph glyph-name="quotedbl" unicode="&#x22;" horiz-adv-x="1659" 
d="M668 2867l-115 -876h-156l-114 876h385zM1376 2867l-114 -876h-156l-115 876h385z" />
    <glyph glyph-name="numbersign" unicode="#" horiz-adv-x="3654" 
d="M2286 -57h-361l139 733h-766l-139 -733h-360l139 733h-713l70 340h713l151 782h-717l70 340h717l135 729h360l-135 -729h762l139 729h361l-139 -729h716l-69 -340h-717l-148 -782h713l-69 -340h-713zM2134 1016l147 782h-761l-152 -782h766z" />
    <glyph glyph-name="dollar" unicode="$" horiz-adv-x="2163" 
d="M1004 -573v515.998c-272 34 -535.667 118.667 -791 254l176 340c172 -132 377 -215.333 615 -250v913l-266 165c-96.667 62 -179 124.667 -247 188c-133.333 124 -200 283.667 -200 479c0 236 106.667 426.333 320 571c107.333 72.667 238.333 115.667 393 129v291h184
v-291c174.667 -10.667 374 -72 598 -184l-152 -324c-130 70.667 -278.667 118.334 -446 143.001v-839c330.667 -161.333 551 -325.333 661 -492c67.333 -101.333 101 -218.666 101 -351.999c0 -253.333 -123 -455.333 -369 -606
c-116.667 -71.333 -247.667 -116.333 -393 -135v-516h-184zM1188 1102l0.000976562 -815.001c101.333 18 184.666 60 249.999 126c70.667 70.667 106 155.667 106 255c0 180.667 -118.667 325.334 -356 434.001zM1004 1638v729c-89.333 -17.333 -162.333 -56 -219 -116
c-59.333 -63.333 -89 -139.333 -89 -228c0 -152.667 102.667 -281 308 -385z" />
    <glyph glyph-name="percent" unicode="%" horiz-adv-x="4272" 
d="M459 2187c0 386 119.667 643.667 359 773c102.667 55.333 209.667 83 321 83c181.333 0 335.333 -62.667 462 -188c148 -146.667 222 -369.334 222 -668.001c0 -384 -120 -641 -360 -771c-104.667 -56.667 -212.667 -85 -324 -85c-258 0 -450.667 120.667 -578 362
c-68 128.667 -102 293.334 -102 494.001zM811 2183c0 -393.333 109.333 -590 328 -590c220.667 0 331 196.667 331 590s-110.333 590 -331 590c-218.667 0 -328 -196.667 -328 -590zM2454 446c0 414.667 128.333 678 385 790c102 44.667 200 67 294 67
c245.333 0 433.666 -108.333 565 -325c76.667 -126.667 115 -304 115 -532c0 -386.667 -118 -644 -354 -772c-103.333 -56 -212 -84 -326 -84c-262.667 0 -455.667 120.333 -579 361c-66.667 130 -100 295 -100 495zM2806 442c0 -392.667 109 -589 327 -589
c218.667 0 328 196.333 328 589c0 393.333 -109.333 590 -328 590c-218 0 -327 -196.667 -327 -590zM1167 -659l-225 131l2048 3698l229 -151z" />
    <glyph glyph-name="ampersand" unicode="&#x26;" horiz-adv-x="2679" 
d="M2142 1462l312 -151.001c-108 -256 -236.667 -487 -386 -693l386 -618h-435l-200 283c-210.667 -226.667 -453.667 -340 -729 -340c-314.667 0 -558 127.333 -730 382c-90 133.333 -135 299.333 -135 498c0 296.667 111.667 537.334 335 722.001
c104 86 221.667 150 353 192c-80.667 133.333 -130 218.333 -148 255c-48.667 100 -73 193.667 -73 281c0 166.667 86.667 296 260 388c89.333 47.333 200.666 71 333.999 71c166.667 0 323.667 -37 471 -111l-102 -319c-131.333 62.667 -244.666 94 -339.999 94
c-161.333 0 -242 -39.667 -242 -119s43.667 -185.666 131 -319l664 -1012c112 183.333 203.333 355.333 274 516zM1630 613.999l-565 881c-294.667 -120.667 -442 -344.667 -442 -672c0 -218.667 77 -376.667 231 -474c69.333 -44 142.333 -66 219 -66
c237.333 0 423 110.333 557 331z" />
    <glyph glyph-name="quotesingle" unicode="'" horiz-adv-x="950" 
d="M668 2867h-385l114 -876h156z" />
    <glyph glyph-name="parenleft" unicode="(" horiz-adv-x="1323" 
d="M901 2933l258 -164c-308.667 -498 -463 -1060.67 -463 -1688c0 -568.667 154.333 -1136.67 463 -1704l-258 -159c-296.667 388 -486 815.667 -568 1283c-36 204.667 -54 401 -54 589c0 685.333 207.333 1299.67 622 1843z" />
    <glyph glyph-name="parenright" unicode=")" horiz-adv-x="1323" 
d="M422 2933c414.667 -540.667 622 -1155 622 -1843c0 -704.667 -207.333 -1328.67 -622 -1872l-258 159c178.667 326.667 304 644 376 952c58 247.333 87 498 87 752c0 627.333 -154.333 1190 -463 1688z" />
    <glyph glyph-name="asterisk" unicode="*" horiz-adv-x="2245" 
d="M1122 1769c-38 0 -65.335 2.99902 -82.002 8.99902l-245 -451c-26.667 -49.333 -56.667 -74 -90 -74c-19.333 0 -38.666 7 -57.999 21l-164 119c-35.333 25.333 -53 52.666 -53 81.999c0 32.667 15 64 45 94l361 364c-21.333 36 -35 85.333 -41 148l-508 86
c-74 12.667 -111 45.334 -111 98c0 11.333 2.66699 27.666 8 49l66 180c21.333 57.333 51.333 86 90 86c18.667 0 40.667 -6.66699 66 -20l462 -246c34 40.667 77.667 73.667 131 99l-77 499c0 90 39.333 135 118 135h164c82 0 123 -45 123 -135l-78 -499
c48.667 -26 92.334 -59 131.001 -99l463 246c25.333 13.333 47.333 20 66 20c39.333 0 69.333 -28.667 90 -86l65 -180c6 -16.667 9 -33 9 -49c0 -52.667 -38.333 -85.334 -115 -98l-508 -86c-10.667 -77.333 -24.334 -126.666 -41.001 -147.999l360 -364
c30.667 -31.333 46 -62.666 46 -93.999c0 -28 -18 -55.333 -54 -82l-159 -119c-31.333 -14 -50.666 -21 -57.999 -21c-36 0 -67.333 24.667 -94 74l-246 451c-18.667 -6 -46 -9 -82 -9z" />
    <glyph glyph-name="plus" unicode="+" horiz-adv-x="2974" 
d="M1319 1266h-1122v336h1122v1122h336v-1122h1122v-336h-1122v-1123h-336v1123z" />
    <glyph glyph-name="comma" unicode="," horiz-adv-x="1122" 
d="M500 -37c-139.333 31.333 -209.001 110.667 -209.001 238c0 83.333 29.333 151 88 203c56.667 50 127 75 211 75c82.667 0 148.334 -25 197.001 -75s73 -116.333 73 -199c0 -136.667 -52.333 -292.667 -157 -468c-92 -154.667 -198 -284 -318 -388l-180 155
c152 142.667 250.333 295.667 295 459z" />
    <glyph glyph-name="hyphen" unicode="-" horiz-adv-x="1352" 
d="M119 881v311h1114v-311h-1114z" />
    <glyph glyph-name="hyphen" unicode="&#x2010;" horiz-adv-x="1352" 
d="M119 881v311h1114v-311h-1114z" />
    <glyph glyph-name="period" unicode="." horiz-adv-x="1126" 
d="M238 229c0 82 29.333 151.667 88 209s129 86 211 86s151.5 -28.667 208.5 -86s85.5 -127 85.5 -209c0 -84 -28 -154.167 -84 -210.5s-126 -84.5 -210 -84.5c-83.333 0 -154 28.333 -212 85s-87 126.667 -87 210z" />
    <glyph glyph-name="slash" unicode="/" horiz-adv-x="2826" 
d="M516 -786l-237 151l2138 3568l245 -164z" />
    <glyph glyph-name="zero" unicode="0" horiz-adv-x="2138" 
d="M197 1434c0 742 160.667 1204.67 482 1388c129.333 74 259.333 111 390 111c326 0 569 -185 729 -555c96 -222 144 -536.667 144 -944c0 -742.667 -161 -1205.67 -483 -1389c-130 -74 -260 -111 -390 -111c-326 0 -568.667 185.333 -728 556
c-96 223.333 -144 538 -144 944zM590 1446c0 -584 83.333 -941.333 250 -1072c70.667 -55.333 147 -83 229 -83c319.333 0 479 385 479 1155s-159.667 1155 -479 1155s-479 -385 -479 -1155z" />
    <glyph glyph-name="one" unicode="1" horiz-adv-x="2130" 
d="M1167 2200l-114 -86c-120 -90.667 -221 -153.667 -303 -189l-168 275c132 76 261 172.667 387 290c150 139.333 246 265 288 377h291v-2867h-381v2200z" />
    <glyph glyph-name="two" unicode="2" horiz-adv-x="2138" 
d="M700 328h1205v-328h-1672v332c42 48.667 135 148.334 279 299.001l387 411c144 159.333 263.667 304.666 359 435.999c166 229.333 249 444 249 644c0 143.333 -38.667 258 -116 344c-81.333 90 -192.666 135 -333.999 135c-204.667 0 -372.667 -136.667 -504 -410
l-303 148c61.333 182 166.5 326.5 315.5 433.5s319.5 160.5 511.5 160.5c356 0 599.667 -131.333 731 -394c62 -124 93 -267.333 93 -430c0 -239.333 -108 -507 -324 -803c-106.667 -146.667 -303.334 -369 -590.001 -667c-120.667 -125.333 -216.334 -229 -287.001 -311z
" />
    <glyph glyph-name="three" unicode="3" horiz-adv-x="2146" 
d="M528 2241l-258.002 147.002c186 363.333 467.333 545 844 545c325.333 0 544 -124 656 -372c48.667 -108 73 -220.333 73 -337c0 -324.667 -165 -541.667 -495 -651c182.667 -30 324.334 -116.667 425.001 -260c93.333 -132.667 140 -294.667 140 -486
c0 -352 -139 -610 -417 -774c-134 -79.333 -288.667 -119 -464 -119c-219.333 0 -404 63.333 -554 190c-93.333 79.333 -175 193.666 -245 342.999l295 135c132 -246 302.667 -369 512 -369c161.333 0 284.333 60.667 369 182c74 106 111 243.333 111 412
c0 247.333 -62.667 406.666 -188 477.999c-131.333 74.667 -277.666 112 -438.999 112h-66v312c426 0 639 162.333 639 487c0 120 -35 215.5 -105 286.5s-164.667 106.5 -284 106.5c-248 0 -431 -122.667 -549 -368z" />
    <glyph glyph-name="four" unicode="4" horiz-adv-x="2134" 
d="M1393 610h-1160v328l1192 1929h349v-1929h249v-328h-249v-610h-381v610zM1393 938v1380l-836 -1380h836z" />
    <glyph glyph-name="five" unicode="5" horiz-adv-x="2154" 
d="M520 2867l1217 -0.000976562v-327h-885l-74 -775c87.333 87.333 215.666 131 384.999 131c298.667 0 513.334 -157.667 644.001 -473c62.667 -151.333 94 -326.666 94 -525.999c0 -280.667 -77.333 -509 -232 -685c-162 -185.333 -381 -278 -657 -278
c-362.667 0 -615.334 170.667 -758.001 512l266 144c49.333 -82 89 -141 119 -177c92 -108.667 225.667 -163 401 -163c164.667 0 287.667 74.667 369 224c65.333 120 98 269.333 98 448c0 444.667 -146 667 -438 667c-169.333 0 -293.666 -60 -372.999 -180h-299z" />
    <glyph glyph-name="six" unicode="6" horiz-adv-x="2154" 
d="M643 1602c149.333 188 321.333 282 516 282c298 0 513 -144.667 645 -434c64.667 -142 97 -308.667 97 -500c0 -213.333 -34.333 -401 -103 -563c-86.667 -204 -217.334 -335.333 -392.001 -394c-117.333 -39.333 -220 -59 -308 -59c-562.667 0 -844 483.333 -844 1450
c0 632.667 133.333 1083.33 400 1352c130 131.333 284.667 197 464 197c308 0 536 -135.333 684 -406l-258 -168c-81.333 100 -138.666 162.667 -171.999 188c-61.333 46.667 -140.333 70 -237 70c-211.333 0 -357.333 -175.333 -438 -526c-36 -156 -54 -319 -54 -489z
M1094 1544c-273.333 0 -410 -219.667 -410 -659c0 -440 136.667 -660 410 -660c199.333 0 326 120.667 380 362c22 98 33 197.333 33 298c0 439.333 -137.667 659 -413 659z" />
    <glyph glyph-name="seven" unicode="7" horiz-adv-x="2138" 
d="M1430 2540h-1065v327h1409v-327c-220.667 -422.667 -427.334 -1016 -620.001 -1780c-83.333 -330.667 -130.666 -584 -141.999 -760h-394c20.667 312 125.334 745 314.001 1299c163.333 479.333 329.333 893 498 1241z" />
    <glyph glyph-name="eight" unicode="8" horiz-adv-x="2146" 
d="M717 1569c-262 111.333 -393 306.331 -393 584.998c0 238 64.667 426.333 194 565c133.333 142.667 318.333 214 555 214c336.667 0 562.667 -134.333 678 -403c50.667 -118 76 -243.333 76 -376c0 -279.333 -132.333 -474.333 -397 -585
c308 -125.333 462 -380.666 462 -765.999c0 -266.667 -69 -476.667 -207 -630c-144 -159.333 -348 -239 -612 -239c-394 0 -645 160 -753 480c-44 130.667 -66 260.334 -66 389.001c0 376.667 154.333 632 463 766zM1073 1380c-284 0 -426 -193.667 -426 -581
c0 -158.667 30.333 -288 91 -388c74 -121.333 185.667 -182 335 -182c284 0 426 190 426 570c0 387.333 -142 581 -426 581zM1073 2621c-234.667 0 -352 -147.333 -352 -442c0 -319.333 117.333 -479 352 -479s352 159.667 352 479c0 294.667 -117.333 442 -352 442z" />
    <glyph glyph-name="nine" unicode="9" horiz-adv-x="2154" 
d="M1511 1266c-148.667 -188.667 -320.669 -283 -516.002 -283c-297.333 0 -512 145 -644 435c-64.667 142 -97 308.333 -97 499c0 421.333 114 710.666 342 868c142.667 98.667 296.334 148 461.001 148c562.667 0 844 -483.333 844 -1450
c0 -375.333 -54 -700.333 -162 -975c-150.667 -382.667 -385 -574 -703 -574c-308 0 -536 135.333 -684 406l258 168c56.667 -68.667 92.334 -110.667 107.001 -126c84 -88 185 -132 303 -132c212 0 358 177.333 438 532c35.333 156.667 53 318 53 484zM1061 1323
c272.667 0 409.001 219.667 409.001 659c0 254.667 -51.667 440.334 -155 557c-60.667 68.667 -145.334 103 -254.001 103c-276 0 -414 -220 -414 -660c0 -439.333 138 -659 414 -659z" />
    <glyph glyph-name="colon" unicode=":" horiz-adv-x="1012" 
d="M205 1692c0 76.667 25.832 140.834 77.499 192.501s115.834 77.5 192.501 77.5c79.333 0 145 -25.333 197 -76s78 -115.334 78 -194.001c0 -76 -26.833 -140.833 -80.5 -194.5s-118.5 -80.5 -194.5 -80.5s-140 26.833 -192 80.5s-78 118.5 -78 194.5zM204.999 197
c0 75.333 26.168 139.833 78.501 193.5s116.166 80.5 191.499 80.5c76.667 0 141.667 -26.5 195 -79.5s80 -117.833 80 -194.5c0 -77.333 -26.5 -142.5 -79.5 -195.5s-118.167 -79.5 -195.5 -79.5c-76 0 -140 26.833 -192 80.5s-78 118.5 -78 194.5z" />
    <glyph glyph-name="semicolon" unicode=";" horiz-adv-x="1126" 
d="M311 1692c0 78.667 26.167 143.333 78.5 194s117.833 76 196.5 76c78 0 142.5 -25.5 193.5 -76.5s76.5 -115.5 76.5 -193.5c0 -76 -26 -140.833 -78 -194.5s-116 -80.5 -192 -80.5s-140.833 26.833 -194.5 80.5s-80.5 118.5 -80.5 194.5zM377 -651.001l-159.999 155
c130 111.333 229.667 264.333 299 459c-136.667 32 -205 111.333 -205 238c0 80 25.833 146.333 77.5 199s117.5 79 197.5 79c81.333 0 146.666 -25.167 195.999 -75.5s74 -116.5 74 -198.5c0 -140 -52.667 -296.333 -158 -469c-90 -147.333 -197 -276.333 -321 -387z" />
    <glyph glyph-name="less" unicode="&#x3c;" horiz-adv-x="3334" 
d="M246 1434l2752 1220l90 -237l-2113 -983l2113 -983l-90 -238z" />
    <glyph glyph-name="equal" unicode="=" horiz-adv-x="2916" 
d="M168 872v336h2580v-336h-2580zM168 1659v336h2580v-336h-2580z" />
    <glyph glyph-name="greater" unicode="&#x3e;" horiz-adv-x="3334" 
d="M3088 1434l-2752 -1221l-90 238l2113 983l-2113 983l90 237z" />
    <glyph glyph-name="question" unicode="?" horiz-adv-x="2028" 
d="M1110 745l-340.001 0.000976562c0 225.333 60.667 434.666 182 627.999c52 83.333 123.667 181.333 215 294c156 193.333 234 371 234 533c0 154.667 -71.667 266 -215 334c-64.667 30.667 -133.667 46 -207 46c-230 0 -379 -129.667 -447 -389l-344 107
c107.333 423.333 383.333 635 828 635c300 0 518 -83.333 654 -250c112.667 -138 169 -318.333 169 -541c0 -122.667 -33.667 -237.334 -101 -344.001c-41.333 -65.333 -112.666 -156.666 -213.999 -273.999l-174 -201c-132 -152 -212 -344.667 -240 -578zM663.999 197.001
c0 71.333 25.833 132.833 77.5 184.5s113.167 77.5 184.5 77.5s132.833 -25.833 184.5 -77.5s77.5 -113.167 77.5 -184.5s-25.833 -133 -77.5 -185s-113.167 -78 -184.5 -78s-132.833 26 -184.5 78s-77.5 113.667 -77.5 185z" />
    <glyph glyph-name="at" unicode="@" horiz-adv-x="3015" 
d="M2241 2134l-258.998 -872.002c-26.667 -90 -40 -147.333 -40 -172c0 -68.667 57.333 -103 172 -103c186 0 329.333 105 430 315c48.667 101.333 73 219 73 353c0 171.333 -56.333 331.333 -169 480c-104 136.667 -238.833 245.834 -404.5 327.5
c-165.667 81.667 -334.834 122.5 -507.501 122.5c-208.667 0 -401 -53.167 -577 -159.5s-314.667 -251.5 -416 -435.5c-97.333 -176.667 -146 -356.667 -146 -540c0 -273.333 94 -523.666 282 -750.999c213.333 -258.667 504.333 -388 873 -388c170 0 325.667 30.333 467 91
c79.333 34 164 81.667 254 143l152 -209c-197.333 -146 -389.666 -239 -576.999 -279c-99.333 -21.333 -203.333 -32 -312 -32c-244.667 0 -475.334 61 -692.001 183c-214.667 120 -388.334 284 -521.001 492c-138.667 217.333 -208 467.333 -208 750
c0 406.667 145.333 748 436 1024c278.667 264.667 604.334 397 977.001 397c340.667 0 651.667 -117.667 933.001 -353c292.667 -245.333 439 -545.333 439 -900c0 -251.333 -79.333 -464.333 -238 -639c-163.333 -180 -369.333 -270 -618 -270
c-157.333 0 -269.333 56 -336 168c-150.667 -112 -306.334 -168 -467.001 -168c-138.667 0 -249 55.667 -331 167c-74 100.667 -111 222.334 -111 365.001c0 377.333 131.333 653.333 394 828c118 78.667 243.333 118 376 118c151.333 0 275.666 -62.667 372.999 -188
l40 135h259zM1868 1769c-84 90.667 -194.668 136 -332.001 136c-116 0 -212 -65 -288 -195c-57.333 -98 -96.666 -216 -117.999 -354v-160c24 -139.333 91 -209 201 -209c138.667 0 252 42.333 340 127z" />
    <glyph glyph-name="A" unicode="A" 
d="M811 778l-283 -778h-434l1192 2867h352l1192 -2867h-434l-282 778h-1303zM1958 1118l-496 1254l-495 -1254h991z" />
    <glyph glyph-name="B" unicode="B" horiz-adv-x="2568" 
d="M328 0v2867h901c306.667 0 535.667 -35.667 687 -107c216.667 -102 325 -287.333 325 -556c0 -342.667 -145 -557 -435 -643v-33c242.667 -30 422.334 -148.333 539 -355c56 -99.333 84 -209 84 -329c0 -562.667 -289.333 -844 -868 -844h-1233zM725 2527v-839h483
c286 0 471.333 59 556 177c44.667 62.667 67 145.667 67 249c0 157.333 -50.667 268.666 -152 334c-82 52.667 -207.333 79 -376 79h-578zM721 1348v-1008h602c456 0 684 170.667 684 512c0 199.333 -82.333 337.666 -247 414.999c-115.333 54 -287 81 -515 81h-524z" />
    <glyph glyph-name="C" unicode="C" horiz-adv-x="2585" 
d="M2372 2585l-181.003 -275c-242 188.667 -501.333 283 -778 283c-346 0 -589 -182 -729 -546c-65.333 -170 -98 -360.667 -98 -572c0 -545.333 162.667 -906.666 488 -1084c143.333 -78 296 -117 458 -117c212.667 0 432.334 125.667 659.001 377l267 -229
c-240.667 -325.333 -559 -488 -955 -488c-267.333 0 -502.666 63.667 -705.999 191c-206 129.333 -364 314.666 -474 555.999c-106 233.333 -159 496.333 -159 789c0 481.333 143.667 854 431 1118c250.667 230 538.334 345 863.001 345c389.333 0 694 -116 914 -348z" />
    <glyph glyph-name="D" unicode="D" horiz-adv-x="2679" 
d="M328 2871h700c590.667 0 1001 -141 1231 -423c187.333 -229.333 281 -573 281 -1031c0 -296 -35.333 -536.667 -106 -722c-186 -488 -654.667 -732 -1406 -732h-700v2908zM721 2531l-0.000976562 -2228h356c530.667 0 851.667 169 963 507c52 158.667 78 361 78 607
c0 235.333 -20 419.333 -60 552c-65.333 215.333 -191.666 367.333 -378.999 456c-148 70.667 -348.667 106 -602 106h-356z" />
    <glyph glyph-name="E" unicode="E" horiz-adv-x="2249" 
d="M1950 2527h-1229v-823h1040v-340h-1040v-1024h1388v-340h-1781v2867h1622v-340z" />
    <glyph glyph-name="F" unicode="F" horiz-adv-x="2134" 
d="M737 2527v-827h1041v-340h-1041v-1360h-393v2867h1622v-340h-1229z" />
    <glyph glyph-name="G" unicode="G" 
d="M2306 1950c-155.333 428.667 -435.334 643 -840.001 643c-357.333 0 -610 -167.333 -758 -502c-76 -172 -114 -387 -114 -645c0 -332 61 -599 183 -801c149.333 -247.333 379 -371 689 -371c375.333 0 629.666 168.333 762.999 505c52 131.333 86 256.666 102 375.999
h-742v340h1164c2.66699 -27.333 4 -69.666 4 -126.999c0 -364 -80.667 -675 -242 -933c-209.333 -334 -557.666 -501 -1045 -501c-608.667 0 -1002 255.333 -1180 766c-78.667 226 -118 470.667 -118 734c0 598.667 175 1027 525 1285c193.333 142.667 451 214 773 214
c232.667 0 443.334 -44 632.001 -132c284 -132.667 477.667 -375.334 581 -728z" />
    <glyph glyph-name="H" unicode="H" horiz-adv-x="2699" 
d="M721 1315v-1315h-393v2867h393v-1212h1257v1212h394v-2867h-394v1315h-1257z" />
    <glyph glyph-name="I" unicode="I" horiz-adv-x="1008" 
d="M307 0v2867h393v-2867h-393z" />
    <glyph glyph-name="J" unicode="J" horiz-adv-x="1569" 
d="M852 2867l392.999 0.000976562v-2015c0 -470.667 -135.667 -756.334 -407 -857.001c-109.333 -40.667 -227.666 -61 -354.999 -61c-158.667 0 -297.667 41 -417 123l159 299c80 -51.333 178.333 -77 295 -77c221.333 0 332 191 332 573v2015z" />
    <glyph glyph-name="K" unicode="K" horiz-adv-x="2732" 
d="M729 1507l1221 1360h458l-1011 -1126l1192 -1741h-459l-995 1446l-406 -442v-1004h-393v2867h393v-1360z" />
    <glyph glyph-name="L" unicode="L" horiz-adv-x="2249" 
d="M721 340h1388v-340h-1781v2867h393v-2527z" />
    <glyph glyph-name="M" unicode="M" horiz-adv-x="3150" 
d="M1446 541l-725 1818v-2359h-393v2867h544l709 -1773l700 1773h541v-2867h-393v2359l-721 -1818h-262z" />
    <glyph glyph-name="N" unicode="N" horiz-adv-x="2699" 
d="M721 2171v-2171h-393v2867h393l1257 -2130v2130h394v-2867h-394z" />
    <glyph glyph-name="O" unicode="O" 
d="M164 1434c0 410 82.001 740.333 246.001 991c221.333 338.667 572 508 1052 508c478.667 0 828.334 -169.333 1049 -508c166.667 -256 250 -586.333 250 -991c0 -405.333 -83.333 -736 -250 -992c-220.667 -338.667 -570.334 -508 -1049 -508
c-474.667 0 -825.334 169.333 -1052 508c-164 245.333 -246 576 -246 992zM586.001 1446c0 -504.667 134.333 -850 403 -1036c130.667 -90.667 287 -136 469 -136c428.667 0 699.667 216.333 813.001 649c45.333 172.667 68 343 68 511c0 426 -111 748 -333 966
c-130.667 128.667 -313.334 193 -548.001 193c-198 0 -373.333 -59 -526 -177c-230.667 -178.667 -346 -502 -346 -970z" />
    <glyph glyph-name="P" unicode="P" horiz-adv-x="2474" 
d="M721 1044v-1044h-393v2867h979c438 0 735 -139.333 891 -418c74.667 -133.333 112 -289 112 -467c0 -625.333 -344 -938 -1032 -938h-557zM721 1384h524c428.667 0 643 191.333 643 574c0 379.333 -230.667 569 -692 569h-475v-1143z" />
    <glyph glyph-name="Q" unicode="Q" 
d="M1597 811l414.001 -331.999c218.667 200 328 518.333 328 955c0 426 -111 748 -333 966c-130.667 128.667 -313.334 193 -548.001 193c-380.667 0 -639 -181.667 -775 -545c-64.667 -172.667 -97 -373.334 -97 -602.001c0 -781.333 290.667 -1172 872 -1172
c81.333 0 163.333 11 246 33l-307 238zM2589 25.001l-196.999 -250l-348 266c-168 -71.333 -362 -107 -582 -107c-476.667 0 -827.334 169.333 -1052 508c-164 247.333 -246 578 -246 992c0 410 82 740.333 246 991c221.333 338.667 572 508 1052 508
c477.333 0 827 -169.333 1049 -508c166.667 -254 250 -584.333 250 -991c0 -416 -78.667 -741 -236 -975c-62 -92 -126.667 -168.667 -194 -230z" />
    <glyph glyph-name="R" unicode="R" horiz-adv-x="2474" 
d="M721 2527v-962h381c469.333 0 704 165 704 495c0 194 -72 325.667 -216 395c-99.333 48 -259.333 72 -480 72h-389zM721 1225l0.000976562 -1225h-393v2867h790c229.333 0 399.666 -11.333 510.999 -34c399.333 -81.333 599 -344.333 599 -789
c0 -408.667 -225.333 -662.667 -676 -762l791 -1282h-447l-761 1225h-414z" />
    <glyph glyph-name="S" unicode="S" horiz-adv-x="2585" 
d="M2388 2134l-348.002 -102.003c-66 265.333 -218 430 -456 494c-94 25.333 -166 38 -216 38h-143c-148 0 -264.333 -43 -349 -129c-76 -77.333 -114 -165.333 -114 -264c0 -144 82 -265 246 -363c80 -48 226 -107.333 438 -178c202.667 -68 346.334 -123 431.001 -165
c332.667 -166 499 -410 499 -732c0 -197.333 -55.833 -362.166 -167.5 -494.499s-264.834 -218.5 -459.501 -258.5c-148 -30.667 -280.333 -46 -397 -46c-312.667 0 -569 78 -769 234c-208 162.667 -336.667 396 -386 700l372 119c118.667 -456 379.667 -684 783 -684
c404 0 606 144.667 606 434c0 143.333 -61.333 260 -184 350c-80 58.667 -207 115.334 -381 170.001c-323.333 101.333 -562.333 207.333 -717 318c-213.333 152.667 -320 359.334 -320 620.001c0 277.333 133 484.666 399 622c149.333 77.333 303.333 116 462 116h172
c138.667 0 275.334 -26.667 410.001 -80c224.667 -88.667 388.334 -232 491.001 -430c48 -92 80.667 -188.333 98 -289z" />
    <glyph glyph-name="T" unicode="T" horiz-adv-x="2245" 
d="M1319 2527v-2527h-393v2527h-832v340h2056v-340h-831z" />
    <glyph glyph-name="U" unicode="U" horiz-adv-x="2806" 
d="M332 2867l393 -0.000976562v-1761c0 -259.333 31.667 -448.333 95 -567c94 -176.667 289 -265 585 -265c354.667 0 565 126.333 631 379c30 115.333 45 266.333 45 453v1761h393v-1765c0 -345.333 -57 -608.666 -171 -789.999c-158.667 -252 -458 -378 -898 -378
c-442 0 -742 125.667 -900 377c-115.333 183.333 -173 447 -173 791v1765z" />
    <glyph glyph-name="V" unicode="V" horiz-adv-x="2474" 
d="M1237 692l729 2175h426l-987 -2867h-336l-987 2867h426z" />
    <glyph glyph-name="W" unicode="W" horiz-adv-x="3826" 
d="M1913 2314l-651 -2314h-361l-745 2867h409l545 -2093l602 2093h402l602 -2093l544 2093h410l-745 -2867h-361z" />
    <glyph glyph-name="X" unicode="X" horiz-adv-x="2662" 
d="M1331 1790l672 1077h430l-856 -1376l991 -1491h-459l-778 1180l-778 -1180h-459l991 1491l-856 1376h430z" />
    <glyph glyph-name="Y" unicode="Y" horiz-adv-x="2703" 
d="M1352 1487l757 1380h443l-1004 -1769v-1098h-393v1098l-1003 1769h442z" />
    <glyph glyph-name="Z" unicode="Z" horiz-adv-x="2589" 
d="M1819 2474h-1545v393h2036v-336l-1683 -2138h1773v-393h-2212v401z" />
    <glyph glyph-name="bracketleft" unicode="[" horiz-adv-x="1380" 
d="M647 -463h570v-323h-938v3719h938v-324h-570v-3072z" />
    <glyph glyph-name="backslash" unicode="\" horiz-adv-x="2822" 
d="M2417 -786l-2138 3555l245 164l2134 -3568z" />
    <glyph glyph-name="bracketright" unicode="]" horiz-adv-x="1380" 
d="M733 -463v3072h-569v324h938v-3719h-938v323h569z" />
    <glyph glyph-name="asciicircum" unicode="^" horiz-adv-x="1872" 
d="M934 2572l-442 -524h-254l696 819l700 -819h-254z" />
    <glyph glyph-name="underscore" unicode="_" horiz-adv-x="2404" 
d="M0 -901v336h2404v-336h-2404z" />
    <glyph glyph-name="grave" unicode="`" horiz-adv-x="1692" 
d="M893 2949l389 -717h-311l-561 717h483z" />
    <glyph glyph-name="a" unicode="a" horiz-adv-x="2015" 
d="M430 1434l-160 245c229.333 186 480.666 279 753.999 279c478 0 717 -248.667 717 -746v-704c0 -158 65.333 -238.667 196 -242v-311c-241.333 0 -405 92.667 -491 278c-260 -185.333 -489.333 -278 -688 -278c-183.333 0 -330.666 46.333 -441.999 139
c-120.667 99.333 -181 238.666 -181 417.999c0 312 134 513.333 402 604c118 40 260.333 66.333 427 79c32.667 2.66699 178.334 8.33398 437.001 17.001c0 300.667 -138 451 -414 451c-142.667 0 -328.334 -76.333 -557.001 -229zM1401 930
c-210.667 0 -388.668 -22.001 -534.001 -66.001c-228.667 -69.333 -343 -186.666 -343 -351.999c0 -84.667 32.667 -150 98 -196c57.333 -41.333 130 -62 218 -62c106.667 0 213 32.667 319 98c100.667 62 181.334 140 242.001 234v344z" />
    <glyph glyph-name="b" unicode="b" horiz-adv-x="2236" 
d="M623 279l0.000976562 -279.001h-340v2699h340v-1011c154.667 180 358 270 610 270c391.333 0 653 -185.667 785 -557c55.333 -155.333 83 -309.666 83 -462.999c0 -398 -139 -683.667 -417 -857c-134.667 -84 -293.334 -126 -476.001 -126c-256 0 -451 108 -585 324z
M618.001 945.999c0 -187.333 46.333 -343.332 139 -467.999c103.333 -138.667 245.666 -208 426.999 -208c198.667 0 348.334 95.333 449.001 286c52.667 100 79 227.333 79 382c0 187.333 -38.333 342.666 -115 465.999c-92 148 -225.667 222 -401 222
c-385.333 0 -578 -226.667 -578 -680z" />
    <glyph glyph-name="c" unicode="c" horiz-adv-x="1913" 
d="M1593 545l230 -193c-184 -264.667 -436.667 -397 -758 -397c-416.667 0 -695.667 168.667 -837 506c-62 148 -93 304.333 -93 469c0 422 160.667 723 482 903c148.667 83.333 315.667 125 501 125c252.667 0 480.667 -98.333 684 -295l-196 -238
c-162.667 158.667 -336.334 238 -521.001 238c-195.333 0 -341.666 -76 -438.999 -228c-81.333 -127.333 -122 -294.333 -122 -501c0 -198 42 -357 126 -477c97.333 -138 241 -207 431 -207c182 0 352.667 98.333 512 295z" />
    <glyph glyph-name="d" unicode="d" horiz-adv-x="2236" 
d="M1614 1688v1011h340v-2699h-340v279c-128 -216 -323.333 -324 -586 -324c-358 0 -615.667 146.333 -773 439c-80 148.667 -120 330 -120 544c0 288 73.333 526.333 220 715c158 203.333 375.667 305 653 305c249.333 0 451.333 -90 606 -270zM1618 946
c2.66699 453.333 -188.667 679.999 -574 679.999c-219.333 0 -372 -110 -458 -330c-41.333 -105.333 -62 -224.666 -62 -357.999c0 -278 87.667 -474.333 263 -589c80.667 -52.667 169.334 -79 266.001 -79c185.333 0 328.333 68.667 429 206
c89.333 121.333 134.666 278 135.999 470z" />
    <glyph glyph-name="e" unicode="e" horiz-adv-x="2019" 
d="M1671 541l212.998 -205.001c-204 -254 -468.667 -381 -794 -381c-389.333 0 -668.666 165 -837.999 495c-78 152 -117 316 -117 492c0 400 143.333 694 430 882c136 89.333 291.667 134 467 134c379.333 0 634.333 -181.667 765 -545c58 -161.333 87 -336 87 -524h-1360
c0 -254 83.667 -438 251 -552c84.667 -58 189.667 -87 315 -87c119.333 0 226.333 26.333 321 79c72.667 40.667 159.334 111.334 260.001 212.001zM540.998 1184h958c-14 175.333 -80.333 308.333 -199 399c-70 53.333 -163.333 80 -280 80
c-292 0 -451.667 -159.667 -479 -479z" />
    <glyph glyph-name="f" unicode="f" horiz-adv-x="1458" 
d="M487 1913v192c0 396 160 594 480 594c108 0 200.667 -34 278 -102l-106 -242c-38 27.333 -80.333 41 -127 41c-123.333 0 -185 -97 -185 -291v-192h373v-295h-373v-1618h-340v1618h-274v295h274z" />
    <glyph glyph-name="g" unicode="g" horiz-adv-x="2236" 
d="M1614 1634l0.000976562 279.001h340v-1712c0 -658 -282.667 -987 -848 -987c-316 0 -559 113.333 -729 340l225 204c131.333 -166.667 299.333 -250 504 -250c338.667 0 508 237.667 508 713c-165.333 -177.333 -367.333 -266 -606 -266c-276 0 -493.333 102 -652 306
c-147.333 190 -221 426.667 -221 710c0 431.333 147.333 724.666 442 879.999c135.333 71.333 285.666 107 450.999 107c264 0 459.333 -108 586 -324zM1618 967.001c0 193.333 -44.667 350 -134 470c-100 134 -243.667 201 -431 201c-174 0 -308.667 -69.333 -404 -208
c-83.333 -120.667 -125 -272.334 -125 -455.001c0 -185.333 39.333 -340.666 118 -465.999c93.333 -148 227.333 -222 402 -222c382.667 0 574 226.667 574 680z" />
    <glyph glyph-name="h" unicode="h" horiz-adv-x="2036" 
d="M623 1675c128 188.667 300.001 283 516.001 283c227.333 0 389.666 -64.667 486.999 -194c84.667 -112.667 127 -287 127 -523v-1241h-340v1204c0 306 -112 459 -336 459c-202.667 0 -354 -140.667 -454 -422v-1241h-340v2699h340v-1024z" />
    <glyph glyph-name="i" unicode="i" horiz-adv-x="1016" 
d="M340 0v1913h348v-1913h-348zM283 2613c0 65.333 21.334 119.333 64.001 162s96.334 64 161.001 64c63.333 0 116.666 -21.833 159.999 -65.5s65 -97.167 65 -160.5c0 -60 -22.5 -112.5 -67.5 -157.5s-97.5 -67.5 -157.5 -67.5c-62.667 0 -115.834 21.833 -159.501 65.5
s-65.5 96.834 -65.5 159.5z" />
    <glyph glyph-name="j" unicode="j" horiz-adv-x="1126" 
d="M451 1913l340.002 0.000976562v-2024c0 -216.667 -26.667 -374.334 -80 -473.001c-72.667 -134.667 -207.334 -202 -404.001 -202c-98.667 0 -191.334 34 -278.001 102l106 242c37.333 -30 81 -45 131 -45c103.333 0 162 57.667 176 173c6 49.333 9 117 9 203v2024z
M393.002 2613c0 62 21.999 115.168 65.999 159.501s97 66.5 159 66.5c64.667 0 118.5 -21.5 161.5 -64.5s64.5 -96.833 64.5 -161.5c0 -62 -22.167 -115 -66.5 -159s-97.5 -66 -159.5 -66c-59.333 0 -111.666 22.667 -156.999 68s-68 97.666 -68 156.999z" />
    <glyph glyph-name="k" unicode="k" horiz-adv-x="2019" 
d="M623 1204l675 709h455l-569 -594l790 -1319h-405l-635 1053l-311 -328v-725h-340v2699h340v-1495z" />
    <glyph glyph-name="l" unicode="l" horiz-adv-x="905" 
d="M283 0v2699h340v-2699h-340z" />
    <glyph glyph-name="m" unicode="m" horiz-adv-x="3043" 
d="M647 1675c122.667 188.667 279.664 283 470.997 283c262.667 0 437.334 -110.667 524.001 -332c78.667 112.667 152.334 193 221.001 241c86.667 60.667 189.334 91 308.001 91c268.667 0 439.667 -111 513 -333c34.667 -105.333 52 -233.333 52 -384v-1241h-340v1204
c0 298 -99.667 447 -299 447c-165.333 0 -300.333 -124.333 -405 -373v-1278h-340v1343c0 87.333 -27.5 160.5 -82.5 219.5s-125.833 88.5 -212.5 88.5c-94.667 0 -182 -46.667 -262 -140c-64 -74.667 -113.333 -164.667 -148 -270v-1241h-340v1913h340v-238z" />
    <glyph glyph-name="n" unicode="n" horiz-adv-x="2028" 
d="M618 1675c129.333 188.667 301.668 283 517.001 283c227.333 0 389.666 -65 486.999 -195c84.667 -112.667 127 -286.667 127 -522v-1241h-340v1204c0 298 -112 447 -336 447c-195.333 0 -347 -136.667 -455 -410v-1241h-339v1913h339v-238z" />
    <glyph glyph-name="o" unicode="o" horiz-adv-x="2249" 
d="M135 975c0 185.333 43.334 353.665 130.001 504.998c89.333 154.667 214.666 274.334 375.999 359.001c150.667 79.333 311 119 481 119c378 0 662.333 -154.333 853 -463c92.667 -150 139 -323.333 139 -520c0 -382 -136.333 -669.333 -409 -862
c-148.667 -105.333 -343 -158 -583 -158c-344.667 0 -602 113.333 -772 340c-143.333 190.667 -215 417.334 -215 680.001zM524.001 970.999c0 -480.667 199.331 -721 597.998 -721c292 0 477 132.333 555 397c31.333 106.667 47 214.667 47 324
c0 204 -48.333 366.333 -145 487c-105.333 131.333 -257.666 197 -456.999 197c-140 0 -259.333 -36 -358 -108c-101.333 -74.667 -168.666 -179 -201.999 -313c-25.333 -101.333 -38 -189 -38 -263z" />
    <glyph glyph-name="p" unicode="p" horiz-adv-x="2236" 
d="M623 221l-0.000976562 -1007h-340v2699h340v-279c132.667 216 327.667 324 585 324c374.667 0 637 -159 787 -477c70.667 -150 106 -320 106 -510c0 -251.333 -63.667 -474.333 -191 -669c-151.333 -231.333 -377 -347 -677 -347
c-241.333 0 -444.666 88.667 -609.999 266zM617.999 958c0 -200.667 44.999 -360.001 134.999 -478.001c100.667 -131.333 248.334 -197 443.001 -197c174 0 307 74.333 399 223c78 126 117 281 117 465c0 280 -85.667 475.333 -257 586
c-79.333 51.333 -169.666 77 -270.999 77c-182.667 0 -325.334 -69 -428.001 -207c-92 -123.333 -138 -279.666 -138 -468.999z" />
    <glyph glyph-name="q" unicode="q" horiz-adv-x="2236" 
d="M1614 1634l0.000976562 279.001h340v-2699h-340v1007c-165.333 -177.333 -367.333 -266 -606 -266c-276 0 -493.333 102 -652 306c-147.333 190 -221 426.667 -221 710c0 431.333 147.333 724.666 442 879.999c135.333 71.333 285.666 107 450.999 107
c264 0 459.333 -108 586 -324zM1618 967.001c0 193.333 -44.667 350 -134 470c-100 134 -243.667 201 -431 201c-174 0 -308.667 -69.333 -404 -208c-83.333 -120.667 -125 -272.334 -125 -455.001c0 -185.333 39.333 -340.666 118 -465.999
c93.333 -148 227.333 -222 402 -222c382.667 0 574 226.667 574 680z" />
    <glyph glyph-name="r" unicode="r" horiz-adv-x="1466" 
d="M623 1913l-0.000976562 -283c204.667 218.667 387.334 328 548.001 328c106.667 0 199.667 -34.333 279 -103l-135 -303c-57.333 24.667 -123 37 -197 37c-100.667 0 -197 -46 -289 -138c-32 -32 -100.667 -119.667 -206 -263v-1188h-340v1913h340z" />
    <glyph glyph-name="s" unicode="s" horiz-adv-x="1913" 
d="M406 684c118.667 -186.667 247.002 -309.333 385.002 -368c72.667 -30.667 154.334 -46 245.001 -46c100.667 0 185 19.667 253 59c82.667 48 124 118.667 124 212c0 88 -37.333 155.333 -112 202c-42 26 -119.333 54 -232 84c-172.667 45.333 -299.334 84 -380.001 116
c-136 53.333 -234.667 112.333 -296 177c-76 80 -114 184.667 -114 314c0 176.667 73.333 311.667 220 405c124.667 79.333 280.667 119 468 119c122 0 248.333 -24.333 379 -73c141.333 -52.667 248.333 -121.334 321 -206.001l-172 -262
c-213.333 150 -411.333 225 -594 225c-68.667 0 -127.667 -13.667 -177 -41c-62 -34 -93 -83 -93 -147c0 -104 89 -183.333 267 -238l294 -90c182.667 -56 316 -117 400 -183c121.333 -94.667 182 -220.667 182 -378c0 -238 -107 -412.667 -321 -524
c-110 -57.333 -244.667 -86 -404 -86c-204.667 0 -385.334 45.667 -542.001 137c-166.667 96.667 -289.334 235.334 -368.001 416.001z" />
    <glyph glyph-name="t" unicode="t" horiz-adv-x="1462" 
d="M492 1868l0.00195312 549h339v-549h398v-295h-398v-942c0 -116.667 6.66699 -197.667 20 -243c26.667 -89.333 83 -134 169 -134c47.333 0 89.666 15 126.999 45l106 -242c-86.667 -68 -179.334 -102 -278.001 -102c-256 0 -407 110.667 -453 332
c-20 96 -30 210.667 -30 344v942h-283v295h283z" />
    <glyph glyph-name="u" unicode="u" horiz-adv-x="2023" 
d="M1405 238c-132.667 -188.667 -304.667 -282.999 -516 -282.999c-329.333 0 -521.666 126.667 -576.999 380c-22 101.333 -33 213.666 -33 336.999v1241h339v-1204c0 -306 112 -459 336 -459c205.333 0 355.666 140.667 450.999 422v1241h340v-1913h-340v238z" />
    <glyph glyph-name="v" unicode="v" horiz-adv-x="2023" 
d="M1012 471l528 1442h373l-721 -1913h-361l-720 1913h372z" />
    <glyph glyph-name="w" unicode="w" 
d="M1462 1495l-409 -1495h-361l-602 1913h340l451 -1442l385 1442h393l385 -1442l450 1442h340l-602 -1913h-360z" />
    <glyph glyph-name="x" unicode="x" horiz-adv-x="2040" 
d="M1020 795l-541 -795h-413l712 1036l-622 877h413l451 -643l450 643h414l-622 -877l712 -1036h-413z" />
    <glyph glyph-name="y" unicode="y" horiz-adv-x="1909" 
d="M1028 553l438 1360h377l-565 -1667c-97.333 -288 -201 -513.333 -311 -676c-160 -237.333 -370.333 -356 -631 -356c-41.333 0 -70 1.33301 -86 4v315c323.333 20.667 521.333 202.334 594 545.001l-778 1835h393z" />
    <glyph glyph-name="z" unicode="z" horiz-adv-x="2134" 
d="M1405 1618h-1024v295h1483v-242l-1151 -1376h1151v-295h-1594v246z" />
    <glyph glyph-name="braceleft" unicode="{" horiz-adv-x="1655" 
d="M487 1094c325.333 -160.667 487.999 -408.002 487.999 -742.002c0 -142 -5.66699 -281.333 -17 -418c-5.33301 -64.667 -8 -131.334 -8 -200.001c0 -206.667 104 -333.667 312 -381l-21 -135c-315.333 38.667 -502.666 192 -561.999 460c-24 108 -36 222 -36 342
c0 32.667 2 81.167 6 145.5s6 112.833 6 145.5c0 453.333 -124 687 -372 701v164c248 22 372 255.333 372 700c0 32.667 -2 81.834 -6 147.501s-6 114.834 -6 147.5c0 147.333 10 260.333 30 339c62.667 247.333 252 402 568 464l21 -135
c-208 -49.333 -312 -177.666 -312 -385v4c2.66699 -32.667 9.66699 -166.667 21 -402c2.66699 -55.333 4 -127.666 4 -216.999c0 -323.333 -162.667 -571.666 -488 -744.999z" />
    <glyph glyph-name="bar" unicode="|" horiz-adv-x="901" 
d="M283 -901v4231h335v-4231h-335z" />
    <glyph glyph-name="braceright" unicode="}" horiz-adv-x="1655" 
d="M1167 1094c-324.667 173.333 -487 421.669 -487 745.002c0 132.667 5.33301 272 16 418c6 82 9 147.667 9 197c0 207.333 -104 335.666 -312 385l21 135c322 -62.667 510 -211.334 564 -446c22.667 -98 34 -217 34 -357c0 -32.667 -2.16699 -81.834 -6.5 -147.501
s-6.5 -114.834 -6.5 -147.501c0 -444.667 124.333 -678 373 -700v-164c-248.667 -14 -373 -247.667 -373 -701c0 -32.667 2.16699 -81.167 6.5 -145.5s6.5 -112.833 6.5 -145.5c0 -286.667 -68 -498.667 -204 -636c-88.667 -89.333 -220 -144.666 -394 -165.999l-21 135
c208 47.333 312 174.333 312 381c0 -29.333 -7 103 -21 397c-2.66699 56 -4 129.667 -4 221c0 333.333 162.333 580.666 487 741.999z" />
    <glyph glyph-name="asciitilde" unicode="~" horiz-adv-x="2998" 
d="M2511 1774l201 -0.000976562c-146 -429.333 -422 -644 -828 -644c-171.333 0 -349.333 55 -534 165c-173.333 103.333 -317.333 155 -432 155c-101.333 0 -187.333 -30 -258 -90c-48.667 -41.333 -106.334 -115 -173.001 -221h-200
c71.333 178.667 176.333 321.334 315 428.001c148 113.333 314.667 170 500 170c144.667 0 311.334 -43.667 500.001 -131c66 -32 186 -86.333 360 -163c42 -17.333 88.333 -26 139 -26c100 0 188.667 35.333 266 106c73.333 67.333 121.333 151 144 251z" />
    <glyph glyph-name="Zcaron" horiz-adv-x="2036" 
d="M623 1925c99.333 147.333 271.334 221.001 516.001 221.001c104.667 0 210.334 -26 317.001 -78c113.333 -54.667 196 -124 248 -208c114.667 -186 172 -391 172 -615v-1245h-336v1188c0 73.333 -12.333 161 -37 263c-29.333 120 -63.333 199 -102 237
c-95.333 92.667 -202 139 -320 139c-154.667 0 -261 -32.667 -319 -98c-14.667 -14.667 -39.334 -42 -74.001 -82c-22.667 -28.667 -44.334 -72.334 -65.001 -131.001v-1516h-340l4 2875h336v-950z" />
    <glyph glyph-name="Zcaron" unicode="&#x17d;" horiz-adv-x="2036" 
d="M623 1925c99.333 147.333 271.334 221.001 516.001 221.001c104.667 0 210.334 -26 317.001 -78c113.333 -54.667 196 -124 248 -208c114.667 -186 172 -391 172 -615v-1245h-336v1188c0 73.333 -12.333 161 -37 263c-29.333 120 -63.333 199 -102 237
c-95.333 92.667 -202 139 -320 139c-154.667 0 -261 -32.667 -319 -98c-14.667 -14.667 -39.334 -42 -74.001 -82c-22.667 -28.667 -44.334 -72.334 -65.001 -131.001v-1516h-340l4 2875h336v-950z" />
    <glyph glyph-name="zcaron" horiz-adv-x="1323" 
d="M405 1352c65.333 88.667 178.668 132.999 340.001 132.999c66 0 138.667 -14.333 218 -43c89.333 -32 149.666 -71.667 180.999 -119c82 -123.333 123 -240 123 -350v-973h-266v787c0 116 -5.33301 202.667 -16 260c-8.66699 46.667 -33.334 89.334 -74.001 128.001
c-55.333 52.667 -124.666 79 -207.999 79c-101.333 0 -169 -18 -203 -54c-12.667 -6 -28.667 -16 -48 -30c-13.333 -17.333 -29 -50 -47 -98v-1072h-283v1932h283v-580z" />
    <glyph glyph-name="zcaron" unicode="&#x17e;" horiz-adv-x="1323" 
d="M405 1352c65.333 88.667 178.668 132.999 340.001 132.999c66 0 138.667 -14.333 218 -43c89.333 -32 149.666 -71.667 180.999 -119c82 -123.333 123 -240 123 -350v-973h-266v787c0 116 -5.33301 202.667 -16 260c-8.66699 46.667 -33.334 89.334 -74.001 128.001
c-55.333 52.667 -124.666 79 -207.999 79c-101.333 0 -169 -18 -203 -54c-12.667 -6 -28.667 -16 -48 -30c-13.333 -17.333 -29 -50 -47 -98v-1072h-283v1932h283v-580z" />
    <glyph glyph-name="nonbreakingspace" unicode="&#xa0;" horiz-adv-x="1692" 
 />
    <glyph glyph-name="currency" unicode="&#xa4;" 
d="M164 1434c0 410 82.001 740.333 246.001 991c221.333 338.667 572 508 1052 508c478.667 0 828.334 -169.333 1049 -508c166.667 -256 250 -586.333 250 -991c0 -405.333 -83.333 -736 -250 -992c-220.667 -338.667 -570.334 -508 -1049 -508
c-474.667 0 -825.334 169.333 -1052 508c-164 245.333 -246 576 -246 992zM2326 1655c-11.333 96 -29.667 192.998 -55 290.998c-52.667 203.333 -148.667 361.333 -288 474c-142 115.333 -317 173 -525 173c-198 0 -373.333 -59 -526 -177
c-97.333 -75.333 -179.333 -192.666 -246 -351.999c-50 -119.333 -82 -255.666 -96 -408.999h1736zM2328 1229l-1732 -1c36.667 -389.333 167.667 -662 393 -818c130.667 -90.667 287 -136 469 -136c208 0 383 58 525 174c138.667 112.667 234.667 271 288 475
c26.667 102 45.667 204 57 306z" />
    <glyph glyph-name="brokenbar" unicode="&#xa6;" horiz-adv-x="2703" 
d="M1352 1487l757 1380h443l-1004 -1769v-107h287v-286h-287v-705h-393v705h-287v286h287v107l-1003 1769h442z" />
    <glyph glyph-name="section" unicode="&#xa7;" horiz-adv-x="2363" 
d="M537 -299l258 160c84.667 -183.333 204.667 -275 360 -275c75.333 0 140.666 25 195.999 75s83 112.333 83 187c0 99.333 -52.333 199.666 -157 300.999c-50.667 49.333 -144.667 121.333 -282 216c-152 104.667 -251.667 176.334 -299 215.001
c-229.333 186 -344 375 -344 567c0 272 147.667 520.333 443 745c-144.667 146 -217 293.667 -217 443c0 209.333 89 378.333 267 507c91.333 66 205.666 99 342.999 99c278 0 470.333 -102.333 577 -307l-204 -189c-153.333 126 -269.666 189 -348.999 189
c-81.333 0 -148.666 -27.333 -201.999 -82s-80 -123 -80 -205c0 -93.333 49 -183.666 147 -270.999c43.333 -38.667 92.666 -76.667 147.999 -114l139 -94c338 -228.667 539 -424.334 603 -587.001c29.333 -74.667 44 -153.667 44 -237c0 -142.667 -43 -271.667 -129 -387
c-46.667 -62.667 -153.667 -176.667 -321 -342c144.667 -140 217 -288.667 217 -446c0 -216 -92.333 -387.667 -277 -515c-92 -63.333 -202 -95 -330 -95c-281.333 0 -492.666 147.333 -633.999 442zM1409 487c188.667 188.667 283 364.999 283 528.999
c0 96.667 -99 229.667 -297 399c-136 116 -280 220.667 -432 314c-70 -53.333 -132.667 -124.666 -188 -213.999c-60.667 -98 -91 -186.667 -91 -266c0 -128 58 -242.667 174 -344c56.667 -49.333 131 -108 223 -176z" />
    <glyph glyph-name="copyright" unicode="&#xa9;" horiz-adv-x="3731" 
d="M180 1237c0 305.333 75.167 587.501 225.5 846.501s357.833 464.833 622.5 617.5c259.333 149.333 539.333 224 840 224c470 0 868 -163.833 1194 -491.5s489 -726.5 489 -1196.5c0 -468.667 -163.333 -867.167 -490 -1195.5s-724.334 -492.5 -1193 -492.5
c-302 0 -582.167 74.333 -840.5 223s-464.5 353.667 -618.5 615c-152.667 259.333 -229 542.666 -229 849.999zM463 1237c0 -390 136.667 -721.667 410 -995s605 -410 995 -410c250.667 0 483.5 61.833 698.5 185.5s386.5 293.5 514.5 509.5s192 452.667 192 710
c0 254 -62.5 488.833 -187.5 704.5s-297.833 387.167 -518.5 514.5c-215.333 124 -448.333 186 -699 186c-390.667 0 -722.5 -136.5 -995.5 -409.5s-409.5 -604.833 -409.5 -995.5zM2367 807.001l226 -217c-182.667 -194 -405.334 -291 -668.001 -291
c-163.333 0 -314.166 41.167 -452.499 123.5s-248.333 195 -330 338s-122.5 301.833 -122.5 476.5c0 368 161 633 483 795c146 73.333 304.333 110 475 110c264 0 469 -84.667 615 -254l-197 -250c-136.667 120.667 -271.667 181 -405 181c-174 0 -318 -52.333 -432 -157
c-116.667 -108 -175 -248.333 -175 -421c0 -238 88.333 -415.667 265 -533c85.333 -56.667 184.333 -85 297 -85c158 0 298.333 61.333 421 184z" />
    <glyph glyph-name="ordfeminine" unicode="&#xaa;" 
d="M2302 1057h-1688c9.33301 -60 34.333 -142 75 -246c140 -358 396.333 -537 769 -537c427.333 0 698.333 216.333 812.999 649c12 45.333 22.333 90 31 134zM2339 1434c0 426 -110.998 748 -332.998 966c-130.667 128.667 -313.334 193 -548.001 193
c-198 0 -373.333 -59 -526 -177l-522 1c222 344 572.667 516 1052 516c478.667 0 828.334 -169.333 1049 -508c166.667 -256 250 -586.333 250 -991c0 -405.333 -83.333 -736 -250 -992c-220.667 -338.667 -570.334 -508 -1049 -508c-474.667 0 -825.334 169.333 -1052 508
c-164 245.333 -246 576 -246 992h2175z" />
    <glyph glyph-name="guillemotleft" unicode="&#xab;" horiz-adv-x="2241" 
d="M1413 102l-209 -192l-917 1020l917 999l209 -209l-610 -790zM1954 258l-201 -164l-651 836l651 790l201 -172l-406 -618z" />
    <glyph glyph-name="logicalnot" unicode="&#xac;" horiz-adv-x="2974" 
d="M197 1470v336h2580v-950h-336v614h-2244z" />
    <glyph glyph-name="registered" unicode="&#xae;" horiz-adv-x="2617" 
d="M172 2253c0 206 50.666 395.833 151.999 569.5s241.333 311.834 420 414.5c174.667 100 363.667 150 567 150c202.667 0 390.834 -49.833 564.501 -149.5s312 -236.834 415 -411.5c103 -174.667 154.5 -365.667 154.5 -573c0 -202.667 -49.833 -391.334 -149.5 -566.001
s-236.667 -313.834 -411 -417.501s-365.5 -155.5 -573.5 -155.5c-198 0 -383.5 48.833 -556.5 146.5s-312.5 230.834 -418.5 399.501c-109.333 174.667 -164 372.334 -164 593.001zM359.999 2253c0 -172 42.332 -330.666 126.999 -475.999s201.667 -261 351 -347
c146.667 -84.667 304.334 -127 473.001 -127c169.333 0 326.5 42 471.5 126s260.333 199.167 346 345.5s128.5 305.833 128.5 478.499c0 170 -42.5 327.833 -127.5 473.5s-201.167 261.167 -348.5 346.5c-144.667 84 -301.334 126 -470.001 126
c-170.667 0 -329.167 -42.167 -475.5 -126.5s-262.166 -200.166 -347.499 -347.5c-85.333 -147.333 -128 -304.666 -128 -472zM1139 2150v-478.999h-262v1196h540c106.667 0 193.5 -33.333 260.5 -100s100.5 -153.334 100.5 -260.001c0 -158.667 -86 -268 -258 -328
l319 -508h-299l-303 479h-98zM1139 2671v-324h155c131.333 0 197 53.333 197 160c0 109.333 -47.667 164 -143 164h-209z" />
    <glyph glyph-name="degree" unicode="&#xb0;" horiz-adv-x="1393" 
d="M418 2474c0 -78.667 26.667 -145.5 80 -200.5s119.333 -82.5 198 -82.5c80 0 147.167 27.167 201.5 81.5s81.5 121.5 81.5 201.5c0 78.667 -27.5 145.5 -82.5 200.5s-121.833 82.5 -200.5 82.5c-76.667 0 -142.167 -28 -196.5 -84s-81.5 -122.333 -81.5 -199zM246 2474
c0 124.667 43.833 231 131.5 319s193.834 132 318.501 132c125.333 0 231.833 -43.833 319.5 -131.5s131.5 -194.167 131.5 -319.5s-43.833 -231.833 -131.5 -319.5s-194.167 -131.5 -319.5 -131.5c-124.667 0 -230.834 44 -318.501 132s-131.5 194.333 -131.5 319z" />
    <glyph glyph-name="plusminus" unicode="&#xb1;" horiz-adv-x="1757" 
d="M879 988l436 732h344l-615 -1002v-123h149v-207h-144v-388h-341v388h-144v207h144v132l-609 993h338z" />
    <glyph glyph-name="twosuperior" unicode="&#xb2;" horiz-adv-x="1008" 
d="M307 0v2867h393v-2867h-393z" />
    <glyph glyph-name="threesuperior" unicode="&#xb3;" horiz-adv-x="1016" 
d="M340 0v1913h348v-1913h-348zM283 2613c0 65.333 21.334 119.333 64.001 162s96.334 64 161.001 64c63.333 0 116.666 -21.833 159.999 -65.5s65 -97.167 65 -160.5c0 -60 -22.5 -112.5 -67.5 -157.5s-97.5 -67.5 -157.5 -67.5c-62.667 0 -115.834 21.833 -159.501 65.5
s-65.5 96.834 -65.5 159.5z" />
    <glyph glyph-name="mu1" unicode="&#xb5;" horiz-adv-x="2249" 
d="M135 975c0 185.333 43.334 353.665 130.001 504.998c89.333 154.667 214.666 274.334 375.999 359.001c150.667 79.333 311 119 481 119c378 0 662.333 -154.333 853 -463c92.667 -150 139 -323.333 139 -520c0 -382 -136.333 -669.333 -409 -862
c-148.667 -105.333 -343 -158 -583 -158c-344.667 0 -602 113.333 -772 340c-143.333 190.667 -215 417.334 -215 680.001zM1704 1147c-24.667 112 -61.667 208.668 -111 290.001c-88 145.333 -245 218 -471 218c-140 0 -259.333 -36.333 -358 -109
c-102 -74 -169.333 -178 -202 -312c-1.33301 -5.33301 -6.5 -17.833 -15.5 -37.5s-13.5 -32.834 -13.5 -39.501s3.33301 -10 10 -10h1161zM1720 819h-1185c17.333 -112 51.333 -221.667 102 -329c75.333 -160 237 -240 485 -240c292 0 477 132.333 555 397
c24 82 38.333 139.333 43 172z" />
    <glyph glyph-name="mu1" unicode="&#x3bc;" horiz-adv-x="2249" 
d="M135 975c0 185.333 43.334 353.665 130.001 504.998c89.333 154.667 214.666 274.334 375.999 359.001c150.667 79.333 311 119 481 119c378 0 662.333 -154.333 853 -463c92.667 -150 139 -323.333 139 -520c0 -382 -136.333 -669.333 -409 -862
c-148.667 -105.333 -343 -158 -583 -158c-344.667 0 -602 113.333 -772 340c-143.333 190.667 -215 417.334 -215 680.001zM1704 1147c-24.667 112 -61.667 208.668 -111 290.001c-88 145.333 -245 218 -471 218c-140 0 -259.333 -36.333 -358 -109
c-102 -74 -169.333 -178 -202 -312c-1.33301 -5.33301 -6.5 -17.833 -15.5 -37.5s-13.5 -32.834 -13.5 -39.501s3.33301 -10 10 -10h1161zM1720 819h-1185c17.333 -112 51.333 -221.667 102 -329c75.333 -160 237 -240 485 -240c292 0 477 132.333 555 397
c24 82 38.333 139.333 43 172z" />
    <glyph glyph-name="ordmasculine" unicode="&#xba;" horiz-adv-x="2249" 
d="M1677 647l-1095 -0.000976562c17.333 -63.333 35.666 -115.666 54.999 -156.999c75.333 -160 237 -240 485 -240c291.333 0 476.333 132.333 555 397zM1720 974.999l-0.00195312 13.999c0 200 -49 358.667 -147 476c-105.333 126.667 -255.666 190 -450.999 190
c-169.333 0 -297.666 -43.667 -384.999 -131h-442c84 136 203 243.333 357 322c147.333 74.667 304 112 470 112c378 0 662.333 -154.333 853 -463c92.667 -150 139 -323.333 139 -520c0 -382 -136.333 -669.333 -409 -862c-148.667 -105.333 -343 -158 -583 -158
c-344.667 0 -602 113.333 -772 340c-143.333 190.667 -215 417.334 -215 680.001h1585z" />
    <glyph glyph-name="guillemotright" unicode="&#xbb;" horiz-adv-x="2241" 
d="M696 926l-409 659l205 168l651 -827l-651 -799l-205 180zM1446 926l-602 827l205 189l905 -1016l-905 -1000l-205 209z" />
    <glyph glyph-name="Agrave" unicode="&#xc0;" 
d="M811 778l-283 -778h-434l1192 2867h352l1192 -2867h-434l-282 778h-1303zM1958 1118l-496 1254l-495 -1254h991z" />
    <glyph glyph-name="Aacute" unicode="&#xc1;" horiz-adv-x="2585" 
d="M721 2527v-733h749c650 0 975 -286.667 975 -860c0 -300.667 -90.333 -533 -271 -697c-174 -158 -412.667 -237 -716 -237h-1130v2867h1777v-340h-1384zM721 1454v-1114h631c220.667 0 383.667 39 489 117c121.333 90 182 240.667 182 452
c0 363.333 -218.333 545 -655 545h-647z" />
    <glyph glyph-name="Acircumflex" unicode="&#xc2;" horiz-adv-x="2568" 
d="M328 0v2867h901c306.667 0 535.667 -35.667 687 -107c216.667 -102 325 -287.333 325 -556c0 -342.667 -145 -557 -435 -643v-33c242.667 -30 422.334 -148.333 539 -355c56 -99.333 84 -209 84 -329c0 -562.667 -289.333 -844 -868 -844h-1233zM725 2527v-839h483
c286 0 471.333 59 556 177c44.667 62.667 67 145.667 67 249c0 157.333 -50.667 268.666 -152 334c-82 52.667 -207.333 79 -376 79h-578zM721 1348v-1008h602c456 0 684 170.667 684 512c0 199.333 -82.333 337.666 -247 414.999c-115.333 54 -287 81 -515 81h-524z" />
    <glyph glyph-name="Atilde" unicode="&#xc3;" horiz-adv-x="2028" 
d="M1933 2527h-1212v-2527h-393v2867h1605v-340z" />
    <glyph glyph-name="Adieresis" unicode="&#xc4;" horiz-adv-x="2806" 
d="M94 340h335.999c95.333 178.667 184.333 444 267 796c68.667 292 113.334 582.333 134.001 871c10 142 16 273.667 18 395c2 128.667 3 283.667 3 465h1507v-2527h353v-1016h-394v676h-1831v-676h-393v1016zM1966 2527h-721.001c0 -542.667 -59 -1063.33 -177 -1562
c-61.333 -259.333 -138.666 -467.666 -231.999 -624.999h1130v2187z" />
    <glyph glyph-name="Aring" unicode="&#xc5;" horiz-adv-x="2249" 
d="M1950 2527h-1229v-823h1040v-340h-1040v-1024h1388v-340h-1781v2867h1622v-340z" />
    <glyph glyph-name="AE" unicode="&#xc6;" horiz-adv-x="3940" 
d="M2167 1364l-0.000976562 -1364h-393v1364c-27.333 5.33301 -65.666 8 -114.999 8c-202 0 -374.333 -108.333 -517 -325c-64.667 -98 -143.667 -232.667 -237 -404l-176 -325c-70 -124 -144.667 -221 -224 -291c-70 -62 -141.333 -93 -214 -93h-78
c-40 0 -79.667 5.66699 -119 17v315c123.333 0 234.333 90.667 333 272c39.333 72.667 110 212.667 212 420c82.667 168.667 160 293 232 373c104 116 228.667 185.667 374 209v16c-182.667 18 -336.667 142.333 -462 373l-153 322
c-71.333 150 -126.666 245.333 -165.999 286c-48.667 50.667 -124 76 -226 76v312c34 6 74.667 8.66699 122 8c90 -0.666992 160.667 -12.667 212 -36c49.333 -22.667 105 -67.667 167 -135c73.333 -79.333 157.333 -206.666 252 -382l161 -298
c75.333 -133.333 136.666 -222.666 183.999 -267.999c79.333 -76 225.333 -114 438 -114v1167h393v-1167c250 0 415 52.333 495 157c39.333 50.667 88.666 136.334 148 257.001c194 391.333 349.667 635.333 467 732c49.333 40.667 96 66 140 76c22.667 5.33301 77 9 163 11
c44 1.33301 85 -1.33398 123 -8.00098v-312c-104 0 -185 -31.667 -243 -95c-34 -36.667 -78.667 -115.667 -134 -237c-74 -161.333 -124.667 -267 -152 -317c-141.333 -256 -302.333 -392 -483 -408v-16c162.667 -22.667 301.334 -107.334 416 -254.001
c62 -79.333 144.667 -226.666 248 -441.999l128 -269c50.667 -100.667 109 -180.334 175 -239.001c52.667 -46.667 115.334 -70 188 -70v-315c-40.667 -11.333 -80.334 -17 -119 -17h-77c-63.333 0 -128.333 26 -195 78c-98 76 -212.667 235.333 -344 478l-232 428
c-164 302.667 -366 454 -606 454c-21.333 0 -56.666 -2.66699 -106 -8z" />
    <glyph glyph-name="Ccedilla" unicode="&#xc7;" horiz-adv-x="2470" 
d="M393 2322l-175.999 279.004c281.333 221.333 641.666 332 1081 332c422.667 0 705.667 -143 849 -429c62.667 -124.667 94 -256.334 94 -395.001c0 -220.667 -86.667 -388.334 -260 -503.001c-76.667 -50.667 -158 -86.334 -244 -107.001v-20
c215.333 -20 377 -119.333 485 -298c56 -92.667 84 -207.667 84 -345c0 -298.667 -101.667 -527.334 -305 -686.001c-184.667 -144 -431 -216 -739 -216c-288 0 -544.333 58.667 -769 176c-136.667 71.333 -269.667 174 -399 308l221 246
c166 -142 299.333 -238.667 400 -290c141.333 -72 300.333 -108 477 -108c198 0 359.667 48.667 485 146c138 106.667 207 256 207 448c0 254 -124.667 402.333 -374 445c-101.333 17.333 -225 26 -371 26h-181v332c256 0 447.333 24.667 574 74
c199.333 77.333 299 222 299 434c0 136 -67.333 241 -202 315c-109.333 60 -237.333 90 -384 90c-226 0 -421 -38.333 -585 -115c-70.667 -33.333 -159.667 -79.666 -267 -139z" />
    <glyph glyph-name="Egrave" unicode="&#xc8;" horiz-adv-x="2699" 
d="M721 856l1257 1765v246h394v-2867h-394v2052l-1257 -1724v-328h-393v2867h393v-2011z" />
    <glyph glyph-name="Eacute" unicode="&#xc9;" horiz-adv-x="2699" 
d="M721 856l1257 1765v246h394v-2867h-394v2052l-1257 -1724v-328h-393v2867h393v-2011zM680 3572h261.999c8 -197.333 82 -332 222 -404c60.667 -31.333 122 -47 184 -47c125.333 0 225 45 299 135c68.667 82 105.334 187.333 110.001 316h262
c0 -281.333 -105.667 -491 -317 -629c-102 -66.667 -220 -100 -354 -100c-268 0 -462.667 122.333 -584 367c-56 112.667 -84 233.334 -84 362z" />
    <glyph glyph-name="Ecircumflex" unicode="&#xca;" horiz-adv-x="2576" 
d="M721 1364l-0.00292969 -1364h-393v2867h393v-1163c209.333 0 366 49 470 147c63.333 59.333 148.333 192 255 398c116.667 225.333 207.334 376.666 272.001 454c130 156 278.333 234 445 234c38.667 0 78 -4 118 -12v-312c-141.333 0 -255.333 -76 -342 -228
c-37.333 -65.333 -85.666 -160 -144.999 -284c-97.333 -202.667 -196 -343.334 -296 -422.001c-63.333 -50 -143.666 -92.333 -240.999 -127v-12c203.333 -33.333 365.333 -144.333 486 -333c77.333 -120.667 146.333 -241.667 207 -363
c40 -80.667 116 -223.334 228 -428.001c74 -102.667 175.333 -154 304 -154v-311c-76 -14 -133.333 -21 -172 -21c-228.667 0 -424 157.667 -586 473l-238 463c-170.667 332 -425.667 498 -765 498z" />
    <glyph glyph-name="Edieresis" unicode="&#xcb;" horiz-adv-x="2589" 
d="M1868 2527l-721.002 0.00195312c-1.33301 -58 -2.66602 -171.333 -3.99902 -340c-6 -648.667 -51 -1144.33 -135 -1487c-53.333 -218.667 -137.666 -394.334 -252.999 -527.001c-138 -159.333 -309 -239 -513 -239c-52.667 0 -102 5.66699 -148 17v311
c177.333 0 318 80.667 422 242c114.667 178 187 565.667 217 1163c14 279.333 21 528 21 746v454h1507v-2867h-393v2527z" />
    <glyph glyph-name="Igrave" unicode="&#xcc;" horiz-adv-x="3150" 
d="M1446 541l-725 1818v-2359h-393v2867h544l709 -1773l700 1773h541v-2867h-393v2359l-721 -1818h-262z" />
    <glyph glyph-name="Iacute" unicode="&#xcd;" horiz-adv-x="2699" 
d="M721 1315v-1315h-393v2867h393v-1212h1257v1212h394v-2867h-394v1315h-1257z" />
    <glyph glyph-name="Icircumflex" unicode="&#xce;" 
d="M164 1434c0 410 82.001 740.333 246.001 991c221.333 338.667 572 508 1052 508c478.667 0 828.334 -169.333 1049 -508c166.667 -256 250 -586.333 250 -991c0 -405.333 -83.333 -736 -250 -992c-220.667 -338.667 -570.334 -508 -1049 -508
c-474.667 0 -825.334 169.333 -1052 508c-164 245.333 -246 576 -246 992zM586.001 1446c0 -504.667 134.333 -850 403 -1036c130.667 -90.667 287 -136 469 -136c428.667 0 699.667 216.333 813.001 649c45.333 172.667 68 343 68 511c0 426 -111 748 -333 966
c-130.667 128.667 -313.334 193 -548.001 193c-198 0 -373.333 -59 -526 -177c-230.667 -178.667 -346 -502 -346 -970z" />
    <glyph glyph-name="Idieresis" unicode="&#xcf;" horiz-adv-x="2695" 
d="M721 2527v-2527h-393v2867h2039v-2867h-393v2527h-1253z" />
    <glyph glyph-name="Eth" unicode="&#xd0;" horiz-adv-x="2474" 
d="M721 1044v-1044h-393v2867h979c438 0 735 -139.333 891 -418c74.667 -133.333 112 -289 112 -467c0 -625.333 -344 -938 -1032 -938h-557zM721 1384h524c428.667 0 643 191.333 643 574c0 379.333 -230.667 569 -692 569h-475v-1143z" />
    <glyph glyph-name="Ntilde" unicode="&#xd1;" horiz-adv-x="2585" 
d="M2372 2585l-181.003 -275c-242 188.667 -501.333 283 -778 283c-346 0 -589 -182 -729 -546c-65.333 -170 -98 -360.667 -98 -572c0 -545.333 162.667 -906.666 488 -1084c143.333 -78 296 -117 458 -117c212.667 0 432.334 125.667 659.001 377l267 -229
c-240.667 -325.333 -559 -488 -955 -488c-267.333 0 -502.666 63.667 -705.999 191c-206 129.333 -364 314.666 -474 555.999c-106 233.333 -159 496.333 -159 789c0 481.333 143.667 854 431 1118c250.667 230 538.334 345 863.001 345c389.333 0 694 -116 914 -348z" />
    <glyph glyph-name="Ograve" unicode="&#xd2;" horiz-adv-x="2245" 
d="M1319 2527v-2527h-393v2527h-832v340h2056v-340h-831z" />
    <glyph glyph-name="Oacute" unicode="&#xd3;" horiz-adv-x="2589" 
d="M1376 1155l709 1712h409l-917 -2171c-150 -356 -321 -584 -513 -684c-99.333 -52 -211 -78 -335 -78c-60.667 0 -118 5.66699 -172 17v311c154 0 279.333 39 376 117c80.667 65.333 158.667 174 234 326l-1073 2162h434z" />
    <glyph glyph-name="Ocircumflex" unicode="&#xd4;" horiz-adv-x="3367" 
d="M1880 246l-0.000976562 -348.002h-393v348c-437.333 4 -761.666 92.333 -972.999 265c-233.333 190.667 -350 498.334 -350 923.001c0 470 158 798 474 984c174.667 102.667 407 154 697 154c66 0 116.667 -1.33301 152 -4v299h393v-299c35.333 2.66699 86 4 152 4
c780.667 0 1171 -379.333 1171 -1138c0 -539.333 -191 -892 -573 -1058c-196 -85.333 -446 -128.666 -750 -129.999zM1487 2253c-427.333 0 -698.667 -120 -814 -360c-58 -120.667 -87 -273.667 -87 -459c0 -320 66.667 -542.667 200 -668
c128 -120 361.667 -188.333 701 -205v1692zM1880 2253v-1692c326.667 14 555.667 80.667 687 200c142.667 128.667 214 353 214 673c0 392 -131.333 639.333 -394 742c-131.333 51.333 -300.333 77 -507 77z" />
    <glyph glyph-name="Otilde" unicode="&#xd5;" horiz-adv-x="2662" 
d="M1331 1790l672 1077h430l-856 -1376l991 -1491h-459l-778 1180l-778 -1180h-459l991 1491l-856 1376h430z" />
    <glyph glyph-name="Odieresis" unicode="&#xd6;" horiz-adv-x="2810" 
d="M721 340h1233v2527h393v-2527h360v-1016h-393v676h-1986v2867h393v-2527z" />
    <glyph glyph-name="multiply" unicode="&#xd7;" horiz-adv-x="2474" 
d="M1753 1548v1319h393v-2867h-393v1192c-324.667 -104 -621 -156 -889 -156h-94c-232 0 -383.667 89 -455 267c-38 95.333 -57 220.666 -57 375.999v1188h393v-962c0 -276.667 28 -436 84 -478c34 -25.333 89.333 -38 166 -38c312 0 596 53 852 159z" />
    <glyph glyph-name="Oslash" unicode="&#xd8;" horiz-adv-x="3936" 
d="M721 340h1048v2527h398v-2527h1048v2527h394v-2867h-3281v2867h393v-2527z" />
    <glyph glyph-name="Ugrave" unicode="&#xd9;" horiz-adv-x="4051" 
d="M721 336h1048v2531h394v-2531h1048v2531h393v-2531h353v-1012h-393v676h-3236v2867h393v-2531z" />
    <glyph glyph-name="Uacute" unicode="&#xda;" horiz-adv-x="3129" 
d="M1331 2867v-1052h516c487.333 0 815 -127 983 -381c90.667 -137.333 136 -320.333 136 -549c0 -590 -374.333 -885 -1123 -885h-905v2531h-844v336h1237zM1331 340l500 0.000976562c373.333 0 595.666 89.333 667 268c30.667 77.333 46 173.666 46 288.999
c0 128 -14.667 226.667 -44 296c-79.333 188 -302.333 282 -669 282h-500v-1135z" />
    <glyph glyph-name="Ucircumflex" unicode="&#xdb;" horiz-adv-x="3482" 
d="M2761 0v2867h393v-2867h-393zM328 2867h393v-1052h516c498.667 0 829 -131.667 991 -395c84.667 -138 127 -316.333 127 -535c0 -590 -374 -885 -1122 -885h-905v2867zM721 340l500.001 0.000976562c372.667 0 594.667 89.333 666 268
c30.667 77.333 46 173.666 46 288.999c0 127.333 -14.667 226 -44 296c-78.667 188 -301.334 282 -668.001 282h-500v-1135z" />
    <glyph glyph-name="Udieresis" unicode="&#xdc;" horiz-adv-x="2474" 
d="M328 0l-0.000976562 2867h393v-1052h475c207.333 0 373 -16.667 497 -50c168 -45.333 310 -128.666 426 -249.999c127.333 -133.333 191 -334 191 -602c0 -220 -47.667 -404.333 -143 -553c-105.333 -166 -260.666 -270 -465.999 -312c-155.333 -32 -325 -48 -509 -48
h-864zM720.999 339.999h475c461.333 0 692 191 692 573c0 374.667 -233.333 562 -700 562h-467v-1135z" />
    <glyph glyph-name="Yacute" unicode="&#xdd;" horiz-adv-x="2589" 
d="M119 414l250.001 240.998c215.333 -254 474.666 -381 777.999 -381c304 0 536.333 132.333 697 397c94 154.667 144.333 369.334 151 644.001h-1118v340h1118c-3.33301 356 -116 621.667 -338 797c-118.667 94 -271 141 -457 141
c-336.667 0 -604.334 -105.333 -803.001 -316l-196 234c272.667 281.333 614 422 1024 422c388 0 688.333 -144 901 -432c199.333 -269.333 299 -621 299 -1055c0 -439.333 -108.333 -797.666 -325 -1075c-227.333 -291.333 -546.333 -437 -957 -437
c-409.333 0 -750.666 160 -1024 480z" />
    <glyph glyph-name="Thorn" unicode="&#xde;" horiz-adv-x="3768" 
d="M1008 1348l-451 -0.00195312v-1348h-393v2859h393v-1171h463c44 470.667 221.333 818.334 532 1043c186.667 134.667 438 202 754 202c446.667 0 780.334 -142.333 1001 -427c198 -255.333 297 -612.666 297 -1072c0 -558.667 -160.667 -976 -482 -1252
c-192.667 -165.333 -464.667 -248 -816 -248c-588.667 0 -975.334 238.333 -1160 715c-82 211.333 -128 444.333 -138 699zM1430 1446c0 -332 61 -599 183 -801c149.333 -247.333 379 -371 689 -371c428.667 0 699.667 216.333 813 649c45.333 172.667 68 343 68 511
c0 426 -111 748 -333 966c-130.667 128.667 -313.334 193 -548 193c-217.333 0 -399 -64 -545 -192c-142 -124.667 -234.333 -294.667 -277 -510c-33.333 -168 -50 -316.333 -50 -445z" />
    <glyph glyph-name="germandbls" unicode="&#xdf;" horiz-adv-x="2585" 
d="M2257 2867l0.000976562 -2867h-393v1196h-107c-230 0 -387 -33.667 -471 -101c-72 -58 -169 -210 -291 -456c-76.667 -154.667 -140.334 -272.334 -191.001 -353.001c-92.667 -147.333 -181 -244.666 -265 -291.999c-70.667 -40 -154.667 -60 -252 -60
c-44.667 0 -88.334 5.66699 -131.001 17v311c122 0 210.333 47 265 141c24.667 42.667 60.334 114.334 107.001 215.001c108.667 235.333 216 406 322 512c72.667 72.667 160.667 131.667 264 177c-508 16.667 -762 262.334 -762 737.001c0 339.333 123.667 572 371 698
c163.333 83.333 358 125 584 125h950zM1864 1536l0.00195312 991h-389c-306.667 0 -509.334 -57 -608.001 -171c-62 -72 -93 -178.667 -93 -320c0 -255.333 117 -410 351 -464c103.333 -24 222.666 -36 357.999 -36h381z" />
    <glyph glyph-name="agrave" unicode="&#xe0;" horiz-adv-x="2015" 
d="M430 1434l-160 245c229.333 186 480.666 279 753.999 279c478 0 717 -248.667 717 -746v-704c0 -158 65.333 -238.667 196 -242v-311c-241.333 0 -405 92.667 -491 278c-260 -185.333 -489.333 -278 -688 -278c-183.333 0 -330.666 46.333 -441.999 139
c-120.667 99.333 -181 238.666 -181 417.999c0 312 134 513.333 402 604c118 40 260.333 66.333 427 79c32.667 2.66699 178.334 8.33398 437.001 17.001c0 300.667 -138 451 -414 451c-142.667 0 -328.334 -76.333 -557.001 -229zM1401 930
c-210.667 0 -388.668 -22.001 -534.001 -66.001c-228.667 -69.333 -343 -186.666 -343 -351.999c0 -84.667 32.667 -150 98 -196c57.333 -41.333 130 -62 218 -62c106.667 0 213 32.667 319 98c100.667 62 181.334 140 242.001 234v344z" />
    <glyph glyph-name="aacute" unicode="&#xe1;" horiz-adv-x="2253" 
d="M1581 3117h270c-12 -252 -113 -426 -303 -522c-73.333 -36.667 -178.333 -76 -315 -118c-160.667 -49.333 -267.334 -84.666 -320.001 -105.999c-183.333 -75.333 -312.666 -214 -387.999 -416c-43.333 -116.667 -69.666 -267.334 -78.999 -452.001
c160.667 303.333 417.667 455 771 455c372 0 635.667 -150.333 791 -451c70.667 -136.667 106 -285.334 106 -446.001c0 -451.333 -146 -772.666 -438 -963.999c-144 -94.667 -316.333 -142 -517 -142c-260.667 0 -480.334 75.333 -659.001 226
c-235.333 198 -353 536.333 -353 1015c0 591.333 118.667 1015.33 356 1272c162 174.667 402.667 299.667 722 375c114 26.667 192.667 52.334 236 77c80 45.333 120 111 120 197zM557 963c0 -475.333 194.001 -713 582.001 -713c390 0 585 237.667 585 713
c0 203.333 -45.333 367 -136 491c-102.667 139.333 -252.334 209 -449.001 209c-276.667 0 -454.667 -131 -534 -393c-32 -106 -48 -208.333 -48 -307z" />
    <glyph glyph-name="acircumflex" unicode="&#xe2;" horiz-adv-x="1905" 
d="M283 0v1913h725c422.667 0 634 -157 634 -471c0 -100 -28.667 -190 -86 -270c-59.333 -82.667 -137 -134.667 -233 -156c132 -12.667 238.333 -59.667 319 -141c84.667 -84 127 -191.333 127 -322c0 -368.667 -232 -553 -696 -553h-790zM623 1147l286 0.000976562
c229.333 0 344 88.667 344 266c0 89.333 -37.667 148.666 -113 177.999c-46 18 -123 27 -231 27h-286v-471zM623 295.001h344.001c137.333 0 234.666 15.333 291.999 46c80.667 43.333 121 126.333 121 249c0 174.667 -137.667 262 -413 262h-344v-557z" />
    <glyph glyph-name="atilde" unicode="&#xe3;" horiz-adv-x="1573" 
d="M623 1618v-1618h-340v1913h1224v-295h-884z" />
    <glyph glyph-name="adieresis" unicode="&#xe4;" horiz-adv-x="2253" 
d="M430 -4v-557h-340v852h246c185.333 234.667 278 623.667 278 1167v455h1270v-1622h279v-852h-340v557h-1393zM1544 291l-0.000976562 1327h-590c0 -454 -29.333 -787.667 -88 -1001c-31.333 -114 -75.666 -222.667 -132.999 -326h811z" />
    <glyph glyph-name="aring" unicode="&#xe5;" horiz-adv-x="2019" 
d="M1671 541l212.998 -205.001c-204 -254 -468.667 -381 -794 -381c-389.333 0 -668.666 165 -837.999 495c-78 152 -117 316 -117 492c0 400 143.333 694 430 882c136 89.333 291.667 134 467 134c379.333 0 634.333 -181.667 765 -545c58 -161.333 87 -336 87 -524h-1360
c0 -254 83.667 -438 251 -552c84.667 -58 189.667 -87 315 -87c119.333 0 226.333 26.333 321 79c72.667 40.667 159.334 111.334 260.001 212.001zM540.998 1184h958c-14 175.333 -80.333 308.333 -199 399c-70 53.333 -163.333 80 -280 80
c-292 0 -451.667 -159.667 -479 -479z" />
    <glyph glyph-name="ae" unicode="&#xe6;" horiz-adv-x="2920" 
d="M1290 0v880.998h-69c-126.667 0 -221 -34.667 -283 -104c-39.333 -44.667 -107.666 -155 -204.999 -331c-64 -116.667 -138 -239.667 -222 -369c-68 -81.333 -170 -122 -306 -122c-48.667 0 -95 6.66699 -139 20v291c100.667 0 177 49.333 229 148
c39.333 75.333 115 206.333 227 393c45.333 69.333 152.666 151.333 321.999 246c-91.333 7.33301 -167.666 38.666 -228.999 93.999c-38 34 -90 101 -156 201c-70.667 106.667 -123.334 176 -158.001 208c-65.333 60.667 -143.666 91 -234.999 91v290
c48.667 14 110 21 184 21c156 0 306 -113.333 450 -340c77.333 -121.333 159.666 -238.666 246.999 -351.999c62.667 -60 177 -90 343 -90v737h340v-737c176.667 0 298.667 38.667 366 116c35.333 40 91 120 167 240c88 138 156.333 232 205 282
c93.333 96 194.333 144 303 144c70 0 131.333 -8.33301 184 -25v-286c-91.333 0 -169.666 -30.333 -235 -91c-34.667 -32.667 -87.334 -102 -158 -208c-66 -100 -118 -167 -156 -201c-63.333 -57.333 -139.666 -88.666 -229 -93.999
c130 -73.333 229.667 -151.666 299 -234.999c43.333 -52.667 111.333 -161.334 204 -326.001c46.667 -83.333 81.667 -136.666 105 -159.999c43.333 -44 100 -66 170 -66v-291c-35.333 -10.667 -81.666 -16 -139 -16c-79.333 0 -139.666 9.66699 -181 29
c-43.333 20 -88.666 60.667 -135.999 122c-57.333 74.667 -128 186.667 -212 336l-104 185c-66.667 118.667 -137.334 193 -212.001 223c-44.667 18 -101.667 27 -171 27h-70v-881h-340z" />
    <glyph glyph-name="ccedilla" unicode="&#xe7;" horiz-adv-x="1913" 
d="M90 393l204.999 201c119.333 -122 218 -205.667 296 -251c106.667 -62 230.667 -93 372 -93c102.667 0 193 21.667 271 65c94.667 52.667 142 126.667 142 222c0 204.667 -183 307 -549 307h-77v278h90c324.667 0 487 95.667 487 287
c0 87.333 -39.333 153.666 -118 198.999c-64 36.667 -143.333 55 -238 55c-190 0 -369 -68.333 -537 -205l-160 254c144 122 315.333 198 514 228c79.333 12 148.333 18 207 18c188.667 0 345.667 -33.667 471 -101c158.667 -85.333 238 -214.333 238 -387
c0 -240.667 -109.333 -397.667 -328 -471c259.333 -59.333 389 -209.333 389 -450c0 -217.333 -108.333 -384.666 -325 -501.999c-113.333 -61.333 -258.666 -92 -435.999 -92c-262 0 -481.667 64.333 -659 193c-90 65.333 -175 147 -255 245z" />
    <glyph glyph-name="egrave" unicode="&#xe8;" horiz-adv-x="2138" 
d="M623 709l893 901v303h339v-1913h-339v1184l-893 -901v-283h-340v1913h340v-1204z" />
    <glyph glyph-name="eacute" unicode="&#xe9;" horiz-adv-x="2134" 
d="M623 709l888 901v303h340v-1913h-340v1184l-888 -901v-283h-340v1913h340v-1204zM504 2867h228.998c4 -101.333 35.333 -186 94 -254c62.667 -73.333 143.334 -110 242.001 -110s179 36.667 241 110c56.667 68 87 152.667 91 254h229c0 -176.667 -48.667 -322 -146 -436
c-103.333 -121.333 -241.666 -182 -414.999 -182c-174.667 0 -314 60.333 -418 181c-98 114 -147 259.667 -147 437z" />
    <glyph glyph-name="ecircumflex" unicode="&#xea;" horiz-adv-x="2023" 
d="M623 1176c199.333 0 334.336 44 405.003 132c34.667 43.333 84 119.333 148 228c60.667 102.667 108.667 176.334 144 221.001c65.333 82 133 136 203 162c60.667 22.667 145.667 35.667 255 39v-291c-114 -25.333 -187.667 -63 -221 -113
c-19.333 -29.333 -48.333 -80.333 -87 -153c-124.667 -236 -247.334 -359 -368.001 -369v-16c150.667 -46.667 277.667 -176.334 381 -389.001c47.333 -96.667 78 -156.667 92 -180c74 -120.667 178.333 -181 313 -181v-299c-36.667 -8 -76.334 -12 -119.001 -12
c-182.667 0 -323.334 69.333 -422.001 208c-44.667 62.667 -93.667 143.667 -147 243c-94 175.333 -148.667 274 -164 296c-82.667 119.333 -170 179 -262 179h-151v-881h-340v1913h340v-737z" />
    <glyph glyph-name="edieresis" unicode="&#xeb;" horiz-adv-x="2138" 
d="M967 1618c-11.333 -560.667 -90.667 -992 -238 -1294c-120 -246 -300.333 -369 -541 -369c-43.333 0 -76 1.33301 -98 4v303c138.667 9.33301 245 69.333 319 180c54 80.667 96.667 201 128 361c48.667 249.333 82.667 619.333 102 1110h1216v-1913h-339v1618h-549z" />
    <glyph glyph-name="igrave" unicode="&#xec;" horiz-adv-x="2589" 
d="M1171 299l-548 1200v-1499h-340v1913h471l540 -1192l541 1192h471v-1913h-340v1499l-549 -1200h-246z" />
    <glyph glyph-name="iacute" unicode="&#xed;" horiz-adv-x="2138" 
d="M623 885v-885h-340v1913h340v-733h893v733h339v-1913h-339v885h-893z" />
    <glyph glyph-name="icircumflex" unicode="&#xee;" horiz-adv-x="2249" 
d="M135 975c0 185.333 43.334 353.665 130.001 504.998c89.333 154.667 214.666 274.334 375.999 359.001c150.667 79.333 311 119 481 119c378 0 662.333 -154.333 853 -463c92.667 -150 139 -323.333 139 -520c0 -382 -136.333 -669.333 -409 -862
c-148.667 -105.333 -343 -158 -583 -158c-344.667 0 -602 113.333 -772 340c-143.333 190.667 -215 417.334 -215 680.001zM524.001 970.999c0 -480.667 199.331 -721 597.998 -721c292 0 477 132.333 555 397c31.333 106.667 47 214.667 47 324
c0 204 -48.333 366.333 -145 487c-105.333 131.333 -257.666 197 -456.999 197c-140 0 -259.333 -36 -358 -108c-101.333 -74.667 -168.666 -179 -201.999 -313c-25.333 -101.333 -38 -189 -38 -263z" />
    <glyph glyph-name="idieresis" unicode="&#xef;" horiz-adv-x="2023" 
d="M623 1618v-1618h-340v1913h1458v-1913h-340v1618h-778z" />
    <glyph glyph-name="eth" unicode="&#xf0;" horiz-adv-x="2236" 
d="M623 221l-0.000976562 -1007h-340v2699h340v-279c132.667 216 327.667 324 585 324c374.667 0 637 -159 787 -477c70.667 -150 106 -320 106 -510c0 -251.333 -63.667 -474.333 -191 -669c-151.333 -231.333 -377 -347 -677 -347
c-241.333 0 -444.666 88.667 -609.999 266zM617.999 958c0 -200.667 44.999 -360.001 134.999 -478.001c100.667 -131.333 248.334 -197 443.001 -197c174 0 307 74.333 399 223c78 126 117 281 117 465c0 280 -85.667 475.333 -257 586
c-79.333 51.333 -169.666 77 -270.999 77c-182.667 0 -325.334 -69 -428.001 -207c-92 -123.333 -138 -279.666 -138 -468.999z" />
    <glyph glyph-name="ntilde" unicode="&#xf1;" horiz-adv-x="1913" 
d="M1593 545l230 -193c-184 -264.667 -436.667 -397 -758 -397c-416.667 0 -695.667 168.667 -837 506c-62 148 -93 304.333 -93 469c0 422 160.667 723 482 903c148.667 83.333 315.667 125 501 125c252.667 0 480.667 -98.333 684 -295l-196 -238
c-162.667 158.667 -336.334 238 -521.001 238c-195.333 0 -341.666 -76 -438.999 -228c-81.333 -127.333 -122 -294.333 -122 -501c0 -198 42 -357 126 -477c97.333 -138 241 -207 431 -207c182 0 352.667 98.333 512 295z" />
    <glyph glyph-name="ograve" unicode="&#xf2;" horiz-adv-x="1667" 
d="M664 0v1618h-574v295h1487v-295h-573v-1618h-340z" />
    <glyph glyph-name="oacute" unicode="&#xf3;" horiz-adv-x="1909" 
d="M1028 553l438 1360h377l-565 -1667c-97.333 -288 -201 -513.333 -311 -676c-160 -237.333 -370.333 -356 -631 -356c-41.333 0 -70 1.33301 -86 4v315c323.333 20.667 521.333 202.334 594 545.001l-778 1835h393z" />
    <glyph glyph-name="ocircumflex" unicode="&#xf4;" horiz-adv-x="3133" 
d="M1397 1597l-0.00195312 1127h340v-1127c98 235.333 256.333 353 475 353c330 0 561.667 -176.333 695 -529c60.667 -160.667 91 -332.667 91 -516c0 -379.333 -117 -654.666 -351 -825.999c-113.333 -82.667 -244.666 -124 -393.999 -124
c-238.667 0 -410.667 110.667 -516 332v-1073h-340v1073c-108 -221.333 -280 -332 -516 -332c-307.333 0 -525.666 154.667 -654.999 464c-60.667 145.333 -91 307.333 -91 486c0 405.333 120.667 705.666 362 900.999c118.667 96 260.334 144 425.001 144
c223.333 0 381.666 -117.667 474.999 -353zM1409 926c0 186 -26.667 341.667 -80 467c-74 174.667 -192 262 -354 262c-300.667 0 -451 -240.333 -451 -721c0 -464 147.667 -696 443 -696c294.667 0 442 229.333 442 688zM1724 926c0 -458.667 147.667 -688 443 -688
c294.667 0 442 232 442 696c0 480.667 -150 721 -450 721c-169.333 0 -293 -101 -371 -303c-42.667 -110 -64 -252 -64 -426z" />
    <glyph glyph-name="otilde" unicode="&#xf5;" horiz-adv-x="2040" 
d="M1020 795l-541 -795h-413l712 1036l-622 877h413l451 -643l450 643h414l-622 -877l712 -1036h-413z" />
    <glyph glyph-name="odieresis" unicode="&#xf6;" horiz-adv-x="2134" 
d="M623 295h827v1618h340v-1618h266v-856h-340v561h-1433v1913h340v-1618z" />
    <glyph glyph-name="divide" unicode="&#xf7;" horiz-adv-x="1909" 
d="M1286 1012l0.000976562 901h340v-1913h-340v713c-182 -60 -373 -90 -573 -90c-254.667 0 -423 76.333 -505 229c-48.667 90.667 -73 217.667 -73 381v680h340v-680c0 -104.667 11.667 -179 35 -223c32.667 -61.333 96 -92 190 -92c169.333 0 364.666 31.333 585.999 94z
" />
    <glyph glyph-name="oslash" unicode="&#xf8;" horiz-adv-x="3027" 
d="M623 295h720v1618h340v-1618h721v1618h340v-1913h-2461v1913h340v-1618z" />
    <glyph glyph-name="ugrave" unicode="&#xf9;" horiz-adv-x="3154" 
d="M2744 295h320v-856h-316v561h-2465v1913h340v-1618h720v1618h340v-1618h721v1618h340v-1618z" />
    <glyph glyph-name="uacute" unicode="&#xfa;" horiz-adv-x="2154" 
d="M602 1597h-532v316h872v-578h307c363.333 0 599 -95.333 707 -286c53.333 -94 80 -211.667 80 -353c0 -340.667 -126 -552.667 -378 -636c-121.333 -40 -275.333 -60 -462 -60h-594v1597zM942 295h283c281.333 0 422 123 422 369c0 250.667 -140.667 376 -422 376h-283
v-745z" />
    <glyph glyph-name="ucircumflex" unicode="&#xfb;" horiz-adv-x="2699" 
d="M2077 0v1913h340v-1913h-340zM283 1913h340v-578h307c358.667 0 593 -94 703 -282c55.333 -94.667 83 -213.667 83 -357c0 -341.333 -125.667 -553.333 -377 -636c-121.333 -40 -275.333 -60 -462 -60h-594v1913zM623 295h282c164 0 281 40 351 120
c47.333 54 71 137 71 249c0 250.667 -140.667 376 -422 376h-282v-745z" />
    <glyph glyph-name="udieresis" unicode="&#xfc;" horiz-adv-x="1909" 
d="M279 1913h339v-578h402c513.333 0 770 -213 770 -639c0 -307.333 -104 -510.333 -312 -609c-122 -58 -292.333 -87 -511 -87h-688v1913zM618 295h377c270.667 0 406 123 406 369c0 250.667 -135.333 376 -406 376h-377v-745z" />
    <glyph glyph-name="yacute" unicode="&#xfd;" horiz-adv-x="1913" 
d="M90 360l229.002 201c127.333 -144 240.666 -235 339.999 -273c66 -25.333 144 -38 234 -38c312.667 0 473.667 193.667 483 581h-688v295h688c0 161.333 -45.333 290.333 -136 387c-93.333 100 -220 150 -380 150c-172.667 0 -346 -72.333 -520 -217l-176 225
c199.333 191.333 431.333 287 696 287c379.333 0 647.666 -153.333 804.999 -460c75.333 -146.667 113 -315.667 113 -507c0 -419.333 -136.667 -720 -410 -902c-134 -89.333 -292.333 -134 -475 -134c-332 0 -599.667 135 -803 405z" />
    <glyph glyph-name="thorn" unicode="&#xfe;" horiz-adv-x="3039" 
d="M618 1167l323.999 0.000976562c70 347.333 259.333 583.666 568 708.999c134.667 54.667 267.667 82 399 82c377.333 0 661.333 -154.333 852 -463c92.667 -150 139 -323.333 139 -520c0 -260.667 -70.667 -485.667 -212 -675c-171.333 -230 -431 -345 -779 -345
c-422 0 -711.333 162.667 -868 488c-67.333 140 -105.666 283 -114.999 429h-308v-872h-339v1913h339v-746zM1311 971.001c0 -480.667 199.332 -721 597.999 -721c292 0 477 132.333 555 397c31.333 106.667 47 214.667 47 324c0 204 -48.333 366.333 -145 487
c-105.333 131.333 -257.666 197 -456.999 197c-140 0 -259.333 -36.333 -358 -109c-102 -74 -169.333 -178 -202 -312c-25.333 -103.333 -38 -191 -38 -263z" />
    <glyph glyph-name="ydieresis" unicode="&#xff;" horiz-adv-x="2023" 
d="M1405 750h-192.999c-115.333 0 -195.333 -26.333 -240 -79c-22.667 -26.667 -47.667 -63.334 -75 -110.001c-106 -180 -190 -307 -252 -381c-126 -150 -249.667 -225 -371 -225c-46 0 -91 8.33301 -135 25v286c102.667 0 183.334 49.333 242.001 148
c77.333 130 128.666 210 153.999 240c60.667 72 137.667 123 231 153v20c-146 0 -264.5 47.333 -355.5 142s-136.5 215.334 -136.5 362.001c0 234 99 403 297 507c95.333 50 206.666 75 333.999 75h840v-1913h-340v750zM1405 1618h-426c-210 0 -315 -93 -315 -279
c0 -196.667 107.667 -295 323 -295h418v574z" />
    <glyph glyph-name="OE" unicode="&#x152;" horiz-adv-x="2699" 
d="M721 1315v-1315h-393v2867h393v-1212h1257v1212h394l4 -2498h368v-762h-368l-4 393h-394v1315h-1257z" />
    <glyph glyph-name="oe" unicode="&#x153;" horiz-adv-x="2138" 
d="M623 885v-885h-340v1913h340v-733h893v733h339l-4 -1602h295v-647h-303v336h-327v885h-893z" />
    <glyph glyph-name="florin" unicode="&#x192;" horiz-adv-x="1573" 
d="M623 1618v-479h368v-262h-368v-877h-340l4 860h-238v270h238l-4 783h1224v-295h-884z" />
    <glyph glyph-name="afii10023" unicode="&#x401;" horiz-adv-x="2249" 
d="M1950 2527h-1229v-823h1040v-340h-1040v-1024h1388v-340h-1781v2867h1622v-340zM500 3334c0 71.333 24.5 131.5 73.5 180.5s109.167 73.5 180.5 73.5c69.333 0 128.333 -25 177 -75s73 -109.667 73 -179c0 -71.333 -23.833 -131.5 -71.5 -180.5
s-107.167 -73.5 -178.5 -73.5c-72 0 -132.333 24.333 -181 73s-73 109 -73 181zM1331 3334c0 68.667 25.167 128.167 75.5 178.5s109.833 75.5 178.5 75.5c71.333 0 131.5 -24.5 180.5 -73.5s73.5 -109.167 73.5 -180.5s-24.5 -131.5 -73.5 -180.5
s-109.167 -73.5 -180.5 -73.5c-69.333 0 -129 25 -179 75s-75 109.667 -75 179z" />
    <glyph glyph-name="afii10051" unicode="&#x402;" horiz-adv-x="3183" 
d="M1319 2527v-680.001c222 74 478.667 111 770 111c636 0 954 -341.333 954 -1024c0 -263.333 -66 -478 -198 -644c-143.333 -180 -343.333 -270 -600 -270c-237.333 0 -449 94.333 -635 283l200 258c112 -120 247.333 -180 406 -180c270 0 405 176 405 528
c0 300.667 -66.333 500.334 -199 599.001c-84 62.667 -211.333 94 -382 94c-284 0 -524.333 -39.667 -721 -119v-1483h-393v2527h-832v340h2056v-340h-831z" />
    <glyph glyph-name="afii10052" unicode="&#x403;" horiz-adv-x="2028" 
d="M1933 2527h-1212v-766h442v-344h-442v-1417h-393v1409h-295v344h295v1114h1605v-340z" />
    <glyph glyph-name="afii10053" unicode="&#x404;" 
d="M2302 1057h-1688c9.33301 -60 34.333 -142 75 -246c140 -358 396.333 -537 769 -537c427.333 0 698.333 216.333 812.999 649c12 45.333 22.333 90 31 134zM2339 1434c0 426 -110.998 748 -332.998 966c-130.667 128.667 -313.334 193 -548.001 193
c-198 0 -373.333 -59 -526 -177l-522 1c222 344 572.667 516 1052 516c478.667 0 828.334 -169.333 1049 -508c166.667 -256 250 -586.333 250 -991c0 -405.333 -83.333 -736 -250 -992c-220.667 -338.667 -570.334 -508 -1049 -508c-474.667 0 -825.334 169.333 -1052 508
c-164 245.333 -246 576 -246 992h2175z" />
    <glyph glyph-name="afii10054" unicode="&#x405;" horiz-adv-x="2585" 
d="M2388 2134l-348.002 -102.003c-66 265.333 -218 430 -456 494c-94 25.333 -166 38 -216 38h-143c-148 0 -264.333 -43 -349 -129c-76 -77.333 -114 -165.333 -114 -264c0 -144 82 -265 246 -363c80 -48 226 -107.333 438 -178c202.667 -68 346.334 -123 431.001 -165
c332.667 -166 499 -410 499 -732c0 -197.333 -55.833 -362.166 -167.5 -494.499s-264.834 -218.5 -459.501 -258.5c-148 -30.667 -280.333 -46 -397 -46c-312.667 0 -569 78 -769 234c-208 162.667 -336.667 396 -386 700l372 119c118.667 -456 379.667 -684 783 -684
c404 0 606 144.667 606 434c0 143.333 -61.333 260 -184 350c-80 58.667 -207 115.334 -381 170.001c-323.333 101.333 -562.333 207.333 -717 318c-213.333 152.667 -320 359.334 -320 620.001c0 277.333 133 484.666 399 622c149.333 77.333 303.333 116 462 116h172
c138.667 0 275.334 -26.667 410.001 -80c224.667 -88.667 388.334 -232 491.001 -430c48 -92 80.667 -188.333 98 -289z" />
    <glyph glyph-name="afii10055" unicode="&#x406;" horiz-adv-x="1008" 
d="M307 0v2867h393v-2867h-393z" />
    <glyph glyph-name="afii10056" unicode="&#x407;" horiz-adv-x="1462" 
d="M532 0v2867h390v-2867h-390zM61 3334c0 68.667 24.5 128.167 73.5 178.5s107.833 75.5 176.5 75.5c71.333 0 131.5 -24.5 180.5 -73.5s73.5 -109.167 73.5 -180.5c0 -73.333 -24 -134 -72 -182s-108.667 -72 -182 -72c-71.333 0 -130.833 24.5 -178.5 73.5
s-71.5 109.167 -71.5 180.5zM889 3334c0 67.333 25.498 126.5 76.498 177.5s110.167 76.5 177.5 76.5c70.667 0 131.334 -24.667 182.001 -74s76 -109.333 76 -180c0 -72.667 -24.667 -133.167 -74 -181.5s-110.666 -72.5 -183.999 -72.5c-68 0 -127.333 25.333 -178 76
s-76 110 -76 178z" />
    <glyph glyph-name="afii10057" unicode="&#x408;" horiz-adv-x="1569" 
d="M852 2867l392.999 0.000976562v-2015c0 -470.667 -135.667 -756.334 -407 -857.001c-109.333 -40.667 -227.666 -61 -354.999 -61c-158.667 0 -297.667 41 -417 123l159 299c80 -51.333 178.333 -77 295 -77c221.333 0 332 191 332 573v2015z" />
    <glyph glyph-name="afii10059" unicode="&#x40a;" horiz-adv-x="2699" 
d="M721 1315v-1315h-393v2867h393v-1212h1257v1212h394l4 -2498h368v-762h-368l-4 393h-394v1315h-1257z" />
    <glyph glyph-name="afii10060" unicode="&#x40b;" horiz-adv-x="2036" 
d="M623 1925c99.333 147.333 271.334 221.001 516.001 221.001c104.667 0 210.334 -26 317.001 -78c113.333 -54.667 196 -124 248 -208c114.667 -186 172 -391 172 -615v-1245h-336v1188c0 73.333 -12.333 161 -37 263c-29.333 120 -63.333 199 -102 237
c-95.333 92.667 -202 139 -320 139c-154.667 0 -261 -32.667 -319 -98c-14.667 -14.667 -39.334 -42 -74.001 -82c-22.667 -28.667 -44.334 -72.334 -65.001 -131.001v-1516h-340l4 2875h336v-950z" />
    <glyph glyph-name="afii10061" unicode="&#x40c;" horiz-adv-x="2576" 
d="M721 1364l-0.00292969 -1364h-393v2867h393v-1163c209.333 0 366 49 470 147c63.333 59.333 148.333 192 255 398c116.667 225.333 207.334 376.666 272.001 454c130 156 278.333 234 445 234c38.667 0 78 -4 118 -12v-312c-141.333 0 -255.333 -76 -342 -228
c-37.333 -65.333 -85.666 -160 -144.999 -284c-97.333 -202.667 -196 -343.334 -296 -422.001c-63.333 -50 -143.666 -92.333 -240.999 -127v-12c203.333 -33.333 365.333 -144.333 486 -333c77.333 -120.667 146.333 -241.667 207 -363
c40 -80.667 116 -223.334 228 -428.001c74 -102.667 175.333 -154 304 -154h336v-680h-336v369c-76 -14 -133.333 -21 -172 -21c-228.667 0 -424 157.667 -586 473l-238 463c-170.667 332 -425.667 498 -765 498z" />
    <glyph glyph-name="afii10145" unicode="&#x40f;" horiz-adv-x="2695" 
d="M721 340h1253v2527h393v-2867h-851v-676h-336v676h-852v2867h393v-2527z" />
    <glyph glyph-name="afii10017" unicode="&#x410;" 
d="M811 778l-283 -778h-434l1192 2867h352l1192 -2867h-434l-282 778h-1303zM1958 1118l-496 1254l-495 -1254h991z" />
    <glyph glyph-name="afii10018" unicode="&#x411;" horiz-adv-x="2585" 
d="M721 2527v-733h749c650 0 975 -286.667 975 -860c0 -300.667 -90.333 -533 -271 -697c-174 -158 -412.667 -237 -716 -237h-1130v2867h1777v-340h-1384zM721 1454v-1114h631c220.667 0 383.667 39 489 117c121.333 90 182 240.667 182 452
c0 363.333 -218.333 545 -655 545h-647z" />
    <glyph glyph-name="afii10019" unicode="&#x412;" horiz-adv-x="2568" 
d="M328 0v2867h901c306.667 0 535.667 -35.667 687 -107c216.667 -102 325 -287.333 325 -556c0 -342.667 -145 -557 -435 -643v-33c242.667 -30 422.334 -148.333 539 -355c56 -99.333 84 -209 84 -329c0 -562.667 -289.333 -844 -868 -844h-1233zM725 2527v-839h483
c286 0 471.333 59 556 177c44.667 62.667 67 145.667 67 249c0 157.333 -50.667 268.666 -152 334c-82 52.667 -207.333 79 -376 79h-578zM721 1348v-1008h602c456 0 684 170.667 684 512c0 199.333 -82.333 337.666 -247 414.999c-115.333 54 -287 81 -515 81h-524z" />
    <glyph glyph-name="afii10020" unicode="&#x413;" horiz-adv-x="2028" 
d="M1933 2527h-1212v-2527h-393v2867h1605v-340z" />
    <glyph glyph-name="afii10021" unicode="&#x414;" horiz-adv-x="2806" 
d="M94 340h335.999c95.333 178.667 184.333 444 267 796c68.667 292 113.334 582.333 134.001 871c10 142 16 273.667 18 395c2 128.667 3 283.667 3 465h1507v-2527h353v-1016h-394v676h-1831v-676h-393v1016zM1966 2527h-721.001c0 -542.667 -59 -1063.33 -177 -1562
c-61.333 -259.333 -138.666 -467.666 -231.999 -624.999h1130v2187z" />
    <glyph glyph-name="afii10022" unicode="&#x415;" horiz-adv-x="2249" 
d="M1950 2527h-1229v-823h1040v-340h-1040v-1024h1388v-340h-1781v2867h1622v-340z" />
    <glyph glyph-name="afii10024" unicode="&#x416;" horiz-adv-x="3940" 
d="M2167 1364l-0.000976562 -1364h-393v1364c-27.333 5.33301 -65.666 8 -114.999 8c-202 0 -374.333 -108.333 -517 -325c-64.667 -98 -143.667 -232.667 -237 -404l-176 -325c-70 -124 -144.667 -221 -224 -291c-70 -62 -141.333 -93 -214 -93h-78
c-40 0 -79.667 5.66699 -119 17v315c123.333 0 234.333 90.667 333 272c39.333 72.667 110 212.667 212 420c82.667 168.667 160 293 232 373c104 116 228.667 185.667 374 209v16c-182.667 18 -336.667 142.333 -462 373l-153 322
c-71.333 150 -126.666 245.333 -165.999 286c-48.667 50.667 -124 76 -226 76v312c34 6 74.667 8.66699 122 8c90 -0.666992 160.667 -12.667 212 -36c49.333 -22.667 105 -67.667 167 -135c73.333 -79.333 157.333 -206.666 252 -382l161 -298
c75.333 -133.333 136.666 -222.666 183.999 -267.999c79.333 -76 225.333 -114 438 -114v1167h393v-1167c250 0 415 52.333 495 157c39.333 50.667 88.666 136.334 148 257.001c194 391.333 349.667 635.333 467 732c49.333 40.667 96 66 140 76c22.667 5.33301 77 9 163 11
c44 1.33301 85 -1.33398 123 -8.00098v-312c-103.333 0 -184.333 -31.667 -243 -95c-34 -36.667 -78.667 -115.667 -134 -237c-74 -161.333 -124.667 -267 -152 -317c-141.333 -256 -302.333 -392 -483 -408v-16c162.667 -22.667 301.334 -107.334 416 -254.001
c62 -79.333 144.667 -226.666 248 -441.999l128 -269c50.667 -100.667 109 -180.334 175 -239.001c52.667 -46.667 115.334 -70 188 -70v-315c-40.667 -11.333 -80.334 -17 -119 -17h-77c-63.333 0 -128.333 26 -195 78c-98 76 -212.667 235.333 -344 478l-232 428
c-164 302.667 -366 454 -606 454c-21.333 0 -56.666 -2.66699 -106 -8z" />
    <glyph glyph-name="afii10025" unicode="&#x417;" horiz-adv-x="2470" 
d="M393 2322l-175.999 279.004c281.333 221.333 641.666 332 1081 332c422.667 0 705.667 -143 849 -429c62.667 -124.667 94 -256.334 94 -395.001c0 -220.667 -86.667 -388.334 -260 -503.001c-76.667 -50.667 -158 -86.334 -244 -107.001v-20
c215.333 -20 377 -119.333 485 -298c56 -92.667 84 -207.667 84 -345c0 -298.667 -101.667 -527.334 -305 -686.001c-184.667 -144 -431 -216 -739 -216c-288 0 -544.333 58.667 -769 176c-136.667 71.333 -269.667 174 -399 308l221 246
c166 -142 299.333 -238.667 400 -290c141.333 -72 300.333 -108 477 -108c198 0 359.667 48.667 485 146c138 106.667 207 256 207 448c0 254 -124.667 402.333 -374 445c-101.333 17.333 -225 26 -371 26h-181v332c256 0 447.333 24.667 574 74
c199.333 77.333 299 222 299 434c0 136 -67.333 241 -202 315c-109.333 60 -237.333 90 -384 90c-226 0 -421 -38.333 -585 -115c-70.667 -33.333 -159.667 -79.666 -267 -139z" />
    <glyph glyph-name="afii10026" unicode="&#x418;" horiz-adv-x="2699" 
d="M721 856l1257 1765v246h394v-2867h-394v2052l-1257 -1724v-328h-393v2867h393v-2011z" />
    <glyph glyph-name="afii10027" unicode="&#x419;" horiz-adv-x="2699" 
d="M721 856l1257 1765v246h394v-2867h-394v2052l-1257 -1724v-328h-393v2867h393v-2011zM680 3572h261.999c8 -197.333 82 -332 222 -404c60.667 -31.333 122 -47 184 -47c125.333 0 225 45 299 135c68.667 82 105.334 187.333 110.001 316h262
c0 -281.333 -105.667 -491 -317 -629c-102 -66.667 -220 -100 -354 -100c-268 0 -462.667 122.333 -584 367c-56 112.667 -84 233.334 -84 362z" />
    <glyph glyph-name="afii10028" unicode="&#x41a;" horiz-adv-x="2576" 
d="M721 1364l-0.00292969 -1364h-393v2867h393v-1163c209.333 0 366 49 470 147c63.333 59.333 148.333 192 255 398c116.667 225.333 207.334 376.666 272.001 454c130 156 278.333 234 445 234c38.667 0 78 -4 118 -12v-312c-141.333 0 -255.333 -76 -342 -228
c-37.333 -65.333 -85.666 -160 -144.999 -284c-97.333 -202.667 -196 -343.334 -296 -422.001c-63.333 -50 -143.666 -92.333 -240.999 -127v-12c203.333 -33.333 365.333 -144.333 486 -333c77.333 -120.667 146.333 -241.667 207 -363
c40 -80.667 116 -223.334 228 -428.001c74 -102.667 175.333 -154 304 -154v-311c-76 -14 -133.333 -21 -172 -21c-228.667 0 -424 157.667 -586 473l-238 463c-170.667 332 -425.667 498 -765 498z" />
    <glyph glyph-name="afii10029" unicode="&#x41b;" horiz-adv-x="2589" 
d="M1868 2527l-721.002 0.00195312c-1.33301 -58 -2.66602 -171.333 -3.99902 -340c-6 -648.667 -51 -1144.33 -135 -1487c-53.333 -218.667 -137.666 -394.334 -252.999 -527.001c-138 -159.333 -309 -239 -513 -239c-52.667 0 -102 5.66699 -148 17v311
c177.333 0 318 80.667 422 242c114.667 178 187 565.667 217 1163c14 279.333 21 528 21 746v454h1507v-2867h-393v2527z" />
    <glyph glyph-name="afii10030" unicode="&#x41c;" horiz-adv-x="3150" 
d="M1446 541l-725 1818v-2359h-393v2867h544l709 -1773l700 1773h541v-2867h-393v2359l-721 -1818h-262z" />
    <glyph glyph-name="afii10031" unicode="&#x41d;" horiz-adv-x="2699" 
d="M721 1315v-1315h-393v2867h393v-1212h1257v1212h394v-2867h-394v1315h-1257z" />
    <glyph glyph-name="afii10032" unicode="&#x41e;" 
d="M164 1434c0 410 82.001 740.333 246.001 991c221.333 338.667 572 508 1052 508c478.667 0 828.334 -169.333 1049 -508c166.667 -256 250 -586.333 250 -991c0 -405.333 -83.333 -736 -250 -992c-220.667 -338.667 -570.334 -508 -1049 -508
c-474.667 0 -825.334 169.333 -1052 508c-164 245.333 -246 576 -246 992zM586.001 1446c0 -504.667 134.333 -850 403 -1036c130.667 -90.667 287 -136 469 -136c428.667 0 699.667 216.333 813.001 649c45.333 172.667 68 343 68 511c0 426 -111 748 -333 966
c-130.667 128.667 -313.334 193 -548.001 193c-198 0 -373.333 -59 -526 -177c-230.667 -178.667 -346 -502 -346 -970z" />
    <glyph glyph-name="afii10033" unicode="&#x41f;" horiz-adv-x="2695" 
d="M721 2527v-2527h-393v2867h2039v-2867h-393v2527h-1253z" />
    <glyph glyph-name="afii10034" unicode="&#x420;" horiz-adv-x="2474" 
d="M721 1044v-1044h-393v2867h979c438 0 735 -139.333 891 -418c74.667 -133.333 112 -289 112 -467c0 -625.333 -344 -938 -1032 -938h-557zM721 1384h524c428.667 0 643 191.333 643 574c0 379.333 -230.667 569 -692 569h-475v-1143z" />
    <glyph glyph-name="afii10035" unicode="&#x421;" horiz-adv-x="2585" 
d="M2372 2585l-181.003 -275c-242 188.667 -501.333 283 -778 283c-346 0 -589 -182 -729 -546c-65.333 -170 -98 -360.667 -98 -572c0 -545.333 162.667 -906.666 488 -1084c143.333 -78 296 -117 458 -117c212.667 0 432.334 125.667 659.001 377l267 -229
c-240.667 -325.333 -559 -488 -955 -488c-267.333 0 -502.666 63.667 -705.999 191c-206 129.333 -364 314.666 -474 555.999c-106 233.333 -159 496.333 -159 789c0 481.333 143.667 854 431 1118c250.667 230 538.334 345 863.001 345c389.333 0 694 -116 914 -348z" />
    <glyph glyph-name="afii10036" unicode="&#x422;" horiz-adv-x="2245" 
d="M1319 2527v-2527h-393v2527h-832v340h2056v-340h-831z" />
    <glyph glyph-name="afii10037" unicode="&#x423;" horiz-adv-x="2589" 
d="M1376 1155l709 1712h409l-917 -2171c-150 -356 -321 -584 -513 -684c-99.333 -52 -211 -78 -335 -78c-60.667 0 -118 5.66699 -172 17v311c154 0 279.333 39 376 117c80.667 65.333 158.667 174 234 326l-1073 2162h434z" />
    <glyph glyph-name="afii10038" unicode="&#x424;" horiz-adv-x="3367" 
d="M1880 246l-0.000976562 -348.002h-393v348c-437.333 4 -761.666 92.333 -972.999 265c-233.333 190.667 -350 498.334 -350 923.001c0 470 158 798 474 984c174.667 102.667 407 154 697 154c66 0 116.667 -1.33301 152 -4v299h393v-299c35.333 2.66699 86 4 152 4
c780.667 0 1171 -379.333 1171 -1138c0 -539.333 -191 -892 -573 -1058c-196 -85.333 -446 -128.666 -750 -129.999zM1487 2253c-427.333 0 -698.667 -120 -814 -360c-58 -120.667 -87 -273.667 -87 -459c0 -320 66.667 -542.667 200 -668
c128 -120 361.667 -188.333 701 -205v1692zM1880 2253v-1692c326.667 14 555.667 80.667 687 200c142.667 128.667 214 353 214 673c0 392 -131.333 639.333 -394 742c-131.333 51.333 -300.333 77 -507 77z" />
    <glyph glyph-name="afii10039" unicode="&#x425;" horiz-adv-x="2662" 
d="M1331 1790l672 1077h430l-856 -1376l991 -1491h-459l-778 1180l-778 -1180h-459l991 1491l-856 1376h430z" />
    <glyph glyph-name="afii10040" unicode="&#x426;" horiz-adv-x="2810" 
d="M721 340h1233v2527h393v-2527h360v-1016h-393v676h-1986v2867h393v-2527z" />
    <glyph glyph-name="afii10041" unicode="&#x427;" horiz-adv-x="2474" 
d="M1753 1548v1319h393v-2867h-393v1192c-324.667 -104 -621 -156 -889 -156h-94c-232 0 -383.667 89 -455 267c-38 95.333 -57 220.666 -57 375.999v1188h393v-962c0 -276.667 28 -436 84 -478c34 -25.333 89.333 -38 166 -38c312 0 596 53 852 159z" />
    <glyph glyph-name="afii10042" unicode="&#x428;" horiz-adv-x="3936" 
d="M721 340h1048v2527h398v-2527h1048v2527h394v-2867h-3281v2867h393v-2527z" />
    <glyph glyph-name="afii10043" unicode="&#x429;" horiz-adv-x="4051" 
d="M721 336h1048v2531h394v-2531h1048v2531h393v-2531h353v-1012h-393v676h-3236v2867h393v-2531z" />
    <glyph glyph-name="afii10044" unicode="&#x42a;" horiz-adv-x="3129" 
d="M1331 2867v-1052h516c487.333 0 815 -127 983 -381c90.667 -137.333 136 -320.333 136 -549c0 -590 -374.333 -885 -1123 -885h-905v2531h-844v336h1237zM1331 340l500 0.000976562c373.333 0 595.666 89.333 667 268c30.667 77.333 46 173.666 46 288.999
c0 128 -14.667 226.667 -44 296c-79.333 188 -302.333 282 -669 282h-500v-1135z" />
    <glyph glyph-name="afii10045" unicode="&#x42b;" horiz-adv-x="3482" 
d="M2761 0v2867h393v-2867h-393zM328 2867h393v-1052h516c498.667 0 829 -131.667 991 -395c84.667 -138 127 -316.333 127 -535c0 -590 -374 -885 -1122 -885h-905v2867zM721 340l500.001 0.000976562c372.667 0 594.667 89.333 666 268
c30.667 77.333 46 173.666 46 288.999c0 127.333 -14.667 226 -44 296c-78.667 188 -301.334 282 -668.001 282h-500v-1135z" />
    <glyph glyph-name="afii10046" unicode="&#x42c;" horiz-adv-x="2474" 
d="M328 0l-0.000976562 2867h393v-1052h475c207.333 0 373 -16.667 497 -50c168 -45.333 310 -128.666 426 -249.999c127.333 -133.333 191 -334 191 -602c0 -220 -47.667 -404.333 -143 -553c-105.333 -166 -260.666 -270 -465.999 -312c-155.333 -32 -325 -48 -509 -48
h-864zM720.999 339.999h475c461.333 0 692 191 692 573c0 374.667 -233.333 562 -700 562h-467v-1135z" />
    <glyph glyph-name="afii10047" unicode="&#x42d;" horiz-adv-x="2589" 
d="M119 414l250.001 240.998c215.333 -254 474.666 -381 777.999 -381c304 0 536.333 132.333 697 397c94 154.667 144.333 369.334 151 644.001h-1118v340h1118c-3.33301 356 -116 621.667 -338 797c-118.667 94 -271 141 -457 141
c-336.667 0 -604.334 -105.333 -803.001 -316l-196 234c272.667 281.333 614 422 1024 422c388 0 688.333 -144 901 -432c199.333 -269.333 299 -621 299 -1055c0 -439.333 -108.333 -797.666 -325 -1075c-227.333 -291.333 -546.333 -437 -957 -437
c-409.333 0 -750.666 160 -1024 480z" />
    <glyph glyph-name="afii10048" unicode="&#x42e;" horiz-adv-x="3768" 
d="M1008 1348l-451 -0.00195312v-1348h-393v2859h393v-1171h463c44 470.667 221.333 818.334 532 1043c186.667 134.667 438 202 754 202c446.667 0 780.334 -142.333 1001 -427c198 -255.333 297 -612.666 297 -1072c0 -558.667 -160.667 -976 -482 -1252
c-192.667 -165.333 -464.667 -248 -816 -248c-588.667 0 -975.334 238.333 -1160 715c-82 211.333 -128 444.333 -138 699zM1430 1446c0 -332 61 -599 183 -801c149.333 -247.333 379 -371 689 -371c428.667 0 699.667 216.333 813 649c45.333 172.667 68 343 68 511
c0 426 -111 748 -333 966c-130.667 128.667 -313.334 193 -548 193c-217.333 0 -399 -64 -545 -192c-142 -124.667 -234.333 -294.667 -277 -510c-33.333 -168 -50 -316.333 -50 -445z" />
    <glyph glyph-name="afii10049" unicode="&#x42f;" horiz-adv-x="2585" 
d="M2257 2867l0.000976562 -2867h-393v1196h-107c-230 0 -387 -33.667 -471 -101c-72 -58 -169 -210 -291 -456c-76.667 -154.667 -140.334 -272.334 -191.001 -353.001c-92.667 -147.333 -181 -244.666 -265 -291.999c-70.667 -40 -154.667 -60 -252 -60
c-44.667 0 -88.334 5.66699 -131.001 17v311c122 0 210.333 47 265 141c24.667 42.667 60.334 114.334 107.001 215.001c108.667 235.333 216 406 322 512c72.667 72.667 160.667 131.667 264 177c-508 16.667 -762 262.334 -762 737.001c0 339.333 123.667 572 371 698
c163.333 83.333 358 125 584 125h950zM1864 1536l0.00195312 991h-389c-306.667 0 -509.334 -57 -608.001 -171c-62 -72 -93 -178.667 -93 -320c0 -255.333 117 -410 351 -464c103.333 -24 222.666 -36 357.999 -36h381z" />
    <glyph glyph-name="afii10065" unicode="&#x430;" horiz-adv-x="2015" 
d="M430 1434l-160 245c229.333 186 480.666 279 753.999 279c478 0 717 -248.667 717 -746v-704c0 -158 65.333 -238.667 196 -242v-311c-241.333 0 -405 92.667 -491 278c-260 -185.333 -489.333 -278 -688 -278c-183.333 0 -330.666 46.333 -441.999 139
c-120.667 99.333 -181 238.666 -181 417.999c0 312 134 513.333 402 604c118 40 260.333 66.333 427 79c32.667 2.66699 178.334 8.33398 437.001 17.001c0 300.667 -138 451 -414 451c-142.667 0 -328.334 -76.333 -557.001 -229zM1401 930
c-210.667 0 -388.668 -22.001 -534.001 -66.001c-228.667 -69.333 -343 -186.666 -343 -351.999c0 -84.667 32.667 -150 98 -196c57.333 -41.333 130 -62 218 -62c106.667 0 213 32.667 319 98c100.667 62 181.334 140 242.001 234v344z" />
    <glyph glyph-name="afii10066" unicode="&#x431;" horiz-adv-x="2253" 
d="M1581 3117h270c-12 -252 -113 -426 -303 -522c-73.333 -36.667 -178.333 -76 -315 -118c-160.667 -49.333 -267.334 -84.666 -320.001 -105.999c-183.333 -75.333 -312.666 -214 -387.999 -416c-43.333 -116.667 -69.666 -267.334 -78.999 -452.001
c160.667 303.333 417.667 455 771 455c372 0 635.667 -150.333 791 -451c70.667 -136.667 106 -285.334 106 -446.001c0 -451.333 -146 -772.666 -438 -963.999c-144 -94.667 -316.333 -142 -517 -142c-260.667 0 -480.334 75.333 -659.001 226
c-235.333 198 -353 536.333 -353 1015c0 591.333 118.667 1015.33 356 1272c162 174.667 402.667 299.667 722 375c114 26.667 192.667 52.334 236 77c80 45.333 120 111 120 197zM557 963c0 -475.333 194.001 -713 582.001 -713c390 0 585 237.667 585 713
c0 203.333 -45.333 367 -136 491c-102.667 139.333 -252.334 209 -449.001 209c-276.667 0 -454.667 -131 -534 -393c-32 -106 -48 -208.333 -48 -307z" />
    <glyph glyph-name="afii10067" unicode="&#x432;" horiz-adv-x="1905" 
d="M283 0v1913h725c422.667 0 634 -157 634 -471c0 -100 -28.667 -190 -86 -270c-59.333 -82.667 -137 -134.667 -233 -156c132 -12.667 238.333 -59.667 319 -141c84.667 -84 127 -191.333 127 -322c0 -368.667 -232 -553 -696 -553h-790zM623 1147l286 0.000976562
c229.333 0 344 88.667 344 266c0 89.333 -37.667 148.666 -113 177.999c-46 18 -123 27 -231 27h-286v-471zM623 295.001h344.001c137.333 0 234.666 15.333 291.999 46c80.667 43.333 121 126.333 121 249c0 174.667 -137.667 262 -413 262h-344v-557z" />
    <glyph glyph-name="afii10068" unicode="&#x433;" horiz-adv-x="1573" 
d="M623 1618v-1618h-340v1913h1224v-295h-884z" />
    <glyph glyph-name="afii10069" unicode="&#x434;" horiz-adv-x="2253" 
d="M430 -4v-557h-340v852h246c185.333 234.667 278 623.667 278 1167v455h1270v-1622h279v-852h-340v557h-1393zM1544 291l-0.000976562 1327h-590c0 -454 -29.333 -787.667 -88 -1001c-31.333 -114 -75.666 -222.667 -132.999 -326h811z" />
    <glyph glyph-name="afii10070" unicode="&#x435;" horiz-adv-x="2019" 
d="M1671 541l212.998 -205.001c-204 -254 -468.667 -381 -794 -381c-389.333 0 -668.666 165 -837.999 495c-78 152 -117 316 -117 492c0 400 143.333 694 430 882c136 89.333 291.667 134 467 134c379.333 0 634.333 -181.667 765 -545c58 -161.333 87 -336 87 -524h-1360
c0 -254 83.667 -438 251 -552c84.667 -58 189.667 -87 315 -87c119.333 0 226.333 26.333 321 79c72.667 40.667 159.334 111.334 260.001 212.001zM540.998 1184h958c-14 175.333 -80.333 308.333 -199 399c-70 53.333 -163.333 80 -280 80
c-292 0 -451.667 -159.667 -479 -479z" />
    <glyph glyph-name="afii10072" unicode="&#x436;" horiz-adv-x="2920" 
d="M1290 0v880.998h-69c-126.667 0 -221 -34.667 -283 -104c-39.333 -44.667 -107.666 -155 -204.999 -331c-64 -116.667 -138 -239.667 -222 -369c-68 -81.333 -170 -122 -306 -122c-48.667 0 -95 6.66699 -139 20v291c100.667 0 177 49.333 229 148
c39.333 75.333 115 206.333 227 393c45.333 69.333 152.666 151.333 321.999 246c-91.333 7.33301 -167.666 38.666 -228.999 93.999c-38 34 -90 101 -156 201c-70.667 106.667 -123.334 176 -158.001 208c-65.333 60.667 -143.666 91 -234.999 91v290
c48.667 14 110 21 184 21c156 0 306 -113.333 450 -340c77.333 -121.333 159.666 -238.666 246.999 -351.999c62.667 -60 177 -90 343 -90v737h340v-737c176.667 0 298.667 38.667 366 116c35.333 40 91 120 167 240c88 138 156.333 232 205 282
c93.333 96 194.333 144 303 144c70 0 131.333 -8.33301 184 -25v-286c-91.333 0 -169.666 -30.333 -235 -91c-34.667 -32.667 -87.334 -102 -158 -208c-66 -100 -118 -167 -156 -201c-63.333 -57.333 -139.666 -88.666 -229 -93.999
c130 -73.333 229.667 -151.666 299 -234.999c43.333 -52.667 111.333 -161.334 204 -326.001c46.667 -83.333 81.667 -136.666 105 -159.999c43.333 -44 100 -66 170 -66v-291c-35.333 -10.667 -81.666 -16 -139 -16c-79.333 0 -139.666 9.66699 -181 29
c-43.333 20 -88.666 60.667 -135.999 122c-57.333 74.667 -128 186.667 -212 336l-104 185c-66.667 118.667 -137.334 193 -212.001 223c-44.667 18 -101.667 27 -171 27h-70v-881h-340z" />
    <glyph glyph-name="afii10073" unicode="&#x437;" horiz-adv-x="1913" 
d="M90 393l204.999 201c119.333 -122 218 -205.667 296 -251c106.667 -62 230.667 -93 372 -93c102.667 0 193 21.667 271 65c94.667 52.667 142 126.667 142 222c0 204.667 -183 307 -549 307h-77v278h90c324.667 0 487 95.667 487 287
c0 87.333 -39.333 153.666 -118 198.999c-64 36.667 -143.333 55 -238 55c-190 0 -369 -68.333 -537 -205l-160 254c144 122 315.333 198 514 228c79.333 12 148.333 18 207 18c188.667 0 345.667 -33.667 471 -101c158.667 -85.333 238 -214.333 238 -387
c0 -240.667 -109.333 -397.667 -328 -471c259.333 -59.333 389 -209.333 389 -450c0 -217.333 -108.333 -384.666 -325 -501.999c-113.333 -61.333 -258.666 -92 -435.999 -92c-262 0 -481.667 64.333 -659 193c-90 65.333 -175 147 -255 245z" />
    <glyph glyph-name="afii10074" unicode="&#x438;" horiz-adv-x="2138" 
d="M623 709l893 901v303h339v-1913h-339v1184l-893 -901v-283h-340v1913h340v-1204z" />
    <glyph glyph-name="afii10075" unicode="&#x439;" horiz-adv-x="2134" 
d="M623 709l888 901v303h340v-1913h-340v1184l-888 -901v-283h-340v1913h340v-1204zM504 2867h228.998c4 -101.333 35.333 -186 94 -254c62.667 -73.333 143.334 -110 242.001 -110s179 36.667 241 110c56.667 68 87 152.667 91 254h229c0 -176.667 -48.667 -322 -146 -436
c-103.333 -121.333 -241.666 -182 -414.999 -182c-174.667 0 -314 60.333 -418 181c-98 114 -147 259.667 -147 437z" />
    <glyph glyph-name="afii10076" unicode="&#x43a;" horiz-adv-x="2023" 
d="M623 1176c199.333 0 334.336 44 405.003 132c34.667 43.333 84 119.333 148 228c60.667 102.667 108.667 176.334 144 221.001c65.333 82 133 136 203 162c60.667 22.667 145.667 35.667 255 39v-291c-114 -25.333 -187.667 -63 -221 -113
c-19.333 -29.333 -48.333 -80.333 -87 -153c-124.667 -236 -247.334 -359 -368.001 -369v-16c150.667 -46.667 277.667 -176.334 381 -389.001c47.333 -96.667 78 -156.667 92 -180c74 -120.667 178.333 -181 313 -181v-299c-36.667 -8 -76.334 -12 -119.001 -12
c-182.667 0 -323.334 69.333 -422.001 208c-44.667 62.667 -93.667 143.667 -147 243c-94 175.333 -148.667 274 -164 296c-82.667 119.333 -170 179 -262 179h-151v-881h-340v1913h340v-737z" />
    <glyph glyph-name="afii10077" unicode="&#x43b;" horiz-adv-x="2138" 
d="M967 1618c-11.333 -560.667 -90.667 -992 -238 -1294c-120 -246 -300.333 -369 -541 -369c-43.333 0 -76 1.33301 -98 4v303c138.667 9.33301 245 69.333 319 180c54 80.667 96.667 201 128 361c48.667 249.333 82.667 619.333 102 1110h1216v-1913h-339v1618h-549z" />
    <glyph glyph-name="afii10078" unicode="&#x43c;" horiz-adv-x="2589" 
d="M1171 299l-548 1200v-1499h-340v1913h471l540 -1192l541 1192h471v-1913h-340v1499l-549 -1200h-246z" />
    <glyph glyph-name="afii10079" unicode="&#x43d;" horiz-adv-x="2138" 
d="M623 885v-885h-340v1913h340v-733h893v733h339v-1913h-339v885h-893z" />
    <glyph glyph-name="afii10080" unicode="&#x43e;" horiz-adv-x="2249" 
d="M135 975c0 185.333 43.334 353.665 130.001 504.998c89.333 154.667 214.666 274.334 375.999 359.001c150.667 79.333 311 119 481 119c378 0 662.333 -154.333 853 -463c92.667 -150 139 -323.333 139 -520c0 -382 -136.333 -669.333 -409 -862
c-148.667 -105.333 -343 -158 -583 -158c-344.667 0 -602 113.333 -772 340c-143.333 190.667 -215 417.334 -215 680.001zM524.001 970.999c0 -480.667 199.331 -721 597.998 -721c292 0 477 132.333 555 397c31.333 106.667 47 214.667 47 324
c0 204 -48.333 366.333 -145 487c-105.333 131.333 -257.666 197 -456.999 197c-140 0 -259.333 -36 -358 -108c-101.333 -74.667 -168.666 -179 -201.999 -313c-25.333 -101.333 -38 -189 -38 -263z" />
    <glyph glyph-name="afii10081" unicode="&#x43f;" horiz-adv-x="2023" 
d="M623 1618v-1618h-340v1913h1458v-1913h-340v1618h-778z" />
    <glyph glyph-name="afii10082" unicode="&#x440;" horiz-adv-x="2236" 
d="M623 221l-0.000976562 -1007h-340v2699h340v-279c132.667 216 327.667 324 585 324c374.667 0 637 -159 787 -477c70.667 -150 106 -320 106 -510c0 -251.333 -63.667 -474.333 -191 -669c-151.333 -231.333 -377 -347 -677 -347
c-241.333 0 -444.666 88.667 -609.999 266zM617.999 958c0 -200.667 44.999 -360.001 134.999 -478.001c100.667 -131.333 248.334 -197 443.001 -197c174 0 307 74.333 399 223c78 126 117 281 117 465c0 280 -85.667 475.333 -257 586
c-79.333 51.333 -169.666 77 -270.999 77c-182.667 0 -325.334 -69 -428.001 -207c-92 -123.333 -138 -279.666 -138 -468.999z" />
    <glyph glyph-name="afii10083" unicode="&#x441;" horiz-adv-x="1913" 
d="M1593 545l230 -193c-184 -264.667 -436.667 -397 -758 -397c-416.667 0 -695.667 168.667 -837 506c-62 148 -93 304.333 -93 469c0 422 160.667 723 482 903c148.667 83.333 315.667 125 501 125c252.667 0 480.667 -98.333 684 -295l-196 -238
c-162.667 158.667 -336.334 238 -521.001 238c-195.333 0 -341.666 -76 -438.999 -228c-81.333 -127.333 -122 -294.333 -122 -501c0 -198 42 -357 126 -477c97.333 -138 241 -207 431 -207c182 0 352.667 98.333 512 295z" />
    <glyph glyph-name="afii10084" unicode="&#x442;" horiz-adv-x="1667" 
d="M664 0v1618h-574v295h1487v-295h-573v-1618h-340z" />
    <glyph glyph-name="afii10085" unicode="&#x443;" horiz-adv-x="1909" 
d="M1028 553l438 1360h377l-565 -1667c-97.333 -288 -201 -513.333 -311 -676c-160 -237.333 -370.333 -356 -631 -356c-41.333 0 -70 1.33301 -86 4v315c323.333 20.667 521.333 202.334 594 545.001l-778 1835h393z" />
    <glyph glyph-name="afii10086" unicode="&#x444;" horiz-adv-x="3133" 
d="M1397 1597l-0.00195312 1127h340v-1127c98 235.333 256.333 353 475 353c330 0 561.667 -176.333 695 -529c60.667 -160.667 91 -332.667 91 -516c0 -379.333 -117 -654.666 -351 -825.999c-113.333 -82.667 -244.666 -124 -393.999 -124
c-238.667 0 -410.667 110.667 -516 332v-1073h-340v1073c-108 -221.333 -280 -332 -516 -332c-307.333 0 -525.666 154.667 -654.999 464c-60.667 145.333 -91 307.333 -91 486c0 405.333 120.667 705.666 362 900.999c118.667 96 260.334 144 425.001 144
c223.333 0 381.666 -117.667 474.999 -353zM1409 926c0 186 -26.667 341.667 -80 467c-74 174.667 -192 262 -354 262c-300.667 0 -451 -240.333 -451 -721c0 -464 147.667 -696 443 -696c294.667 0 442 229.333 442 688zM1724 926c0 -458.667 147.667 -688 443 -688
c294.667 0 442 232 442 696c0 480.667 -150 721 -450 721c-169.333 0 -293 -101 -371 -303c-42.667 -110 -64 -252 -64 -426z" />
    <glyph glyph-name="afii10087" unicode="&#x445;" horiz-adv-x="2040" 
d="M1020 795l-541 -795h-413l712 1036l-622 877h413l451 -643l450 643h414l-622 -877l712 -1036h-413z" />
    <glyph glyph-name="afii10088" unicode="&#x446;" horiz-adv-x="2134" 
d="M623 295h827v1618h340v-1618h266v-856h-340v561h-1433v1913h340v-1618z" />
    <glyph glyph-name="afii10089" unicode="&#x447;" horiz-adv-x="1909" 
d="M1286 1012l0.000976562 901h340v-1913h-340v713c-182 -60 -373 -90 -573 -90c-254.667 0 -423 76.333 -505 229c-48.667 90.667 -73 217.667 -73 381v680h340v-680c0 -104.667 11.667 -179 35 -223c32.667 -61.333 96 -92 190 -92c169.333 0 364.666 31.333 585.999 94z
" />
    <glyph glyph-name="afii10090" unicode="&#x448;" horiz-adv-x="3027" 
d="M623 295h720v1618h340v-1618h721v1618h340v-1913h-2461v1913h340v-1618z" />
    <glyph glyph-name="afii10091" unicode="&#x449;" horiz-adv-x="3154" 
d="M2744 295h320v-856h-316v561h-2465v1913h340v-1618h720v1618h340v-1618h721v1618h340v-1618z" />
    <glyph glyph-name="afii10092" unicode="&#x44a;" horiz-adv-x="2154" 
d="M602 1597h-532v316h872v-578h307c363.333 0 599 -95.333 707 -286c53.333 -94 80 -211.667 80 -353c0 -340.667 -126 -552.667 -378 -636c-121.333 -40 -275.333 -60 -462 -60h-594v1597zM942 295h283c281.333 0 422 123 422 369c0 250.667 -140.667 376 -422 376h-283
v-745z" />
    <glyph glyph-name="afii10093" unicode="&#x44b;" horiz-adv-x="2699" 
d="M2077 0v1913h340v-1913h-340zM283 1913h340v-578h307c358.667 0 593 -94 703 -282c55.333 -94.667 83 -213.667 83 -357c0 -341.333 -125.667 -553.333 -377 -636c-121.333 -40 -275.333 -60 -462 -60h-594v1913zM623 295h282c164 0 281 40 351 120
c47.333 54 71 137 71 249c0 250.667 -140.667 376 -422 376h-282v-745z" />
    <glyph glyph-name="afii10094" unicode="&#x44c;" horiz-adv-x="1909" 
d="M279 1913h339v-578h402c513.333 0 770 -213 770 -639c0 -307.333 -104 -510.333 -312 -609c-122 -58 -292.333 -87 -511 -87h-688v1913zM618 295h377c270.667 0 406 123 406 369c0 250.667 -135.333 376 -406 376h-377v-745z" />
    <glyph glyph-name="afii10095" unicode="&#x44d;" horiz-adv-x="1913" 
d="M90 360l229.002 201c127.333 -144 240.666 -235 339.999 -273c66 -25.333 144 -38 234 -38c312.667 0 473.667 193.667 483 581h-688v295h688c0 161.333 -45.333 290.333 -136 387c-93.333 100 -220 150 -380 150c-172.667 0 -346 -72.333 -520 -217l-176 225
c199.333 191.333 431.333 287 696 287c379.333 0 647.666 -153.333 804.999 -460c75.333 -146.667 113 -315.667 113 -507c0 -419.333 -136.667 -720 -410 -902c-134 -89.333 -292.333 -134 -475 -134c-332 0 -599.667 135 -803 405z" />
    <glyph glyph-name="afii10096" unicode="&#x44e;" horiz-adv-x="3039" 
d="M618 1167l323.999 0.000976562c70 347.333 259.333 583.666 568 708.999c134.667 54.667 267.667 82 399 82c377.333 0 661.333 -154.333 852 -463c92.667 -150 139 -323.333 139 -520c0 -260.667 -70.667 -485.667 -212 -675c-171.333 -230 -431 -345 -779 -345
c-422 0 -711.333 162.667 -868 488c-67.333 140 -105.666 283 -114.999 429h-308v-872h-339v1913h339v-746zM1311 971.001c0 -480.667 199.332 -721 597.999 -721c292 0 477 132.333 555 397c31.333 106.667 47 214.667 47 324c0 204 -48.333 366.333 -145 487
c-105.333 131.333 -257.666 197 -456.999 197c-140 0 -259.333 -36.333 -358 -109c-102 -74 -169.333 -178 -202 -312c-25.333 -103.333 -38 -191 -38 -263z" />
    <glyph glyph-name="afii10097" unicode="&#x44f;" horiz-adv-x="2023" 
d="M1405 750h-192.999c-115.333 0 -195.333 -26.333 -240 -79c-22.667 -26.667 -47.667 -63.334 -75 -110.001c-106 -180 -190 -307 -252 -381c-126 -150 -249.667 -225 -371 -225c-46 0 -91 8.33301 -135 25v286c102.667 0 183.334 49.333 242.001 148
c77.333 130 128.666 210 153.999 240c60.667 72 137.667 123 231 153v20c-146 0 -264.5 47.333 -355.5 142s-136.5 215.334 -136.5 362.001c0 234 99 403 297 507c95.333 50 206.666 75 333.999 75h840v-1913h-340v750zM1405 1618h-426c-210 0 -315 -93 -315 -279
c0 -196.667 107.667 -295 323 -295h418v574z" />
    <glyph glyph-name="afii10071" unicode="&#x451;" horiz-adv-x="2019" 
d="M524 889c0 -254 83.665 -438.001 250.998 -552.001c84.667 -58 189.667 -87 315 -87c119.333 0 226.333 26.333 321 79c72.667 40.667 159.334 111.334 260.001 212.001l213 -205c-204 -254 -468.667 -381 -794 -381c-389.333 0 -668.666 165 -837.999 495
c-78 152 -117 316 -117 492c0 400 143.333 694 430 882c136 89.333 291.667 134 467 134c379.333 0 634.333 -181.667 765 -545c58 -161.333 87 -336 87 -524h-1360zM540.998 1184h958c-14 175.333 -80.333 308.333 -199 399c-70 53.333 -163.333 80 -280 80
c-292 0 -451.667 -159.667 -479 -479zM364.998 2613c0 64 21.499 117.668 64.499 161.001s96.5 65 160.5 65c62 0 115 -22.167 159 -66.5s66 -97.5 66 -159.5c0 -60 -22.5 -112.5 -67.5 -157.5s-97.5 -67.5 -157.5 -67.5c-61.333 0 -114.166 22.167 -158.499 66.5
s-66.5 97.166 -66.5 158.499zM1212 2613c0 62.667 21.499 116 64.499 160s95.5 66 157.5 66c63.333 0 116.666 -21.833 159.999 -65.5s65 -97.167 65 -160.5c0 -65.333 -21.167 -119.166 -63.5 -161.5c-42.333 -42.333 -96.166 -63.5 -161.499 -63.5
c-63.333 0 -116.166 21.5 -158.499 64.5s-63.5 96.5 -63.5 160.5z" />
    <glyph glyph-name="afii10099" unicode="&#x452;" horiz-adv-x="2142" 
d="M733 1675c131.333 188.667 303.333 283 516 283c327.333 0 520 -132 578 -396c22 -100 33 -207 33 -321v-475c0 -468 -65.333 -815.333 -196 -1042c-80 -138.667 -199 -272 -357 -400l-193 221c214.667 191.333 341.667 404 381 638c19.333 116 29 262.667 29 440
c0 16 -0.666992 39.833 -2 71.5s-2 55.5 -2 71.5v438c0 298 -112 447 -336 447c-101.333 0 -196 -44.667 -284 -134c-75.333 -76.667 -131 -168.667 -167 -276v-1241h-340v2126h-168v295h168v278h340v-278h791v-295h-791v-451z" />
    <glyph glyph-name="afii10100" unicode="&#x453;" horiz-adv-x="1573" 
d="M623 1618v-479h368v-262h-368v-877h-340l4 860h-238v270h238l-4 783h1224v-295h-884z" />
    <glyph glyph-name="afii10101" unicode="&#x454;" horiz-adv-x="2249" 
d="M1677 647l-1095 -0.000976562c17.333 -63.333 35.666 -115.666 54.999 -156.999c75.333 -160 237 -240 485 -240c291.333 0 476.333 132.333 555 397zM1720 974.999l-0.00195312 13.999c0 200 -49 358.667 -147 476c-105.333 126.667 -255.666 190 -450.999 190
c-169.333 0 -297.666 -43.667 -384.999 -131h-442c84 136 203 243.333 357 322c147.333 74.667 304 112 470 112c378 0 662.333 -154.333 853 -463c92.667 -150 139 -323.333 139 -520c0 -382 -136.333 -669.333 -409 -862c-148.667 -105.333 -343 -158 -583 -158
c-344.667 0 -602 113.333 -772 340c-143.333 190.667 -215 417.334 -215 680.001h1585z" />
    <glyph glyph-name="afii10102" unicode="&#x455;" horiz-adv-x="1913" 
d="M406 684c118.667 -186.667 247.002 -309.333 385.002 -368c72.667 -30.667 154.334 -46 245.001 -46c100.667 0 185 19.667 253 59c82.667 48 124 118.667 124 212c0 88 -37.333 155.333 -112 202c-42 26 -119.333 54 -232 84c-172.667 45.333 -299.334 84 -380.001 116
c-136 53.333 -234.667 112.333 -296 177c-76 80 -114 184.667 -114 314c0 176.667 73.333 311.667 220 405c124.667 79.333 280.667 119 468 119c122 0 248.333 -24.333 379 -73c141.333 -52.667 248.333 -121.334 321 -206.001l-172 -262
c-213.333 150 -411.333 225 -594 225c-68.667 0 -127.667 -13.667 -177 -41c-62 -34 -93 -83 -93 -147c0 -104 89 -183.333 267 -238l294 -90c182.667 -56 316 -117 400 -183c121.333 -94.667 182 -220.667 182 -378c0 -238 -107 -412.667 -321 -524
c-110 -57.333 -244.667 -86 -404 -86c-204.667 0 -385.334 45.667 -542.001 137c-166.667 96.667 -289.334 235.334 -368.001 416.001z" />
    <glyph glyph-name="afii10103" unicode="&#x456;" horiz-adv-x="1016" 
d="M340 0v1913h348v-1913h-348zM283 2613c0 65.333 21.334 119.333 64.001 162s96.334 64 161.001 64c63.333 0 116.666 -21.833 159.999 -65.5s65 -97.167 65 -160.5c0 -60 -22.5 -112.5 -67.5 -157.5s-97.5 -67.5 -157.5 -67.5c-62.667 0 -115.834 21.833 -159.501 65.5
s-65.5 96.834 -65.5 159.5z" />
    <glyph glyph-name="afii10104" unicode="&#x457;" horiz-adv-x="1126" 
d="M377 0v1913h352v-1913h-352zM676 2613c0 64.667 21.332 118.5 63.999 161.5s96.334 64.5 161.001 64.5c65.333 0 119.166 -21.333 161.499 -64s63.5 -96.667 63.5 -162s-21.167 -119.166 -63.5 -161.5c-42.333 -42.333 -96.166 -63.5 -161.499 -63.5
c-64 0 -117.5 21.5 -160.5 64.5s-64.5 96.5 -64.5 160.5zM-0.000976562 2613c0 65.333 21.3311 119.333 63.998 162s96.334 64 161.001 64c65.333 0 119.333 -21.333 162 -64s64 -96.667 64 -162c0 -64 -21.667 -117.5 -65 -160.5s-97 -64.5 -161 -64.5
c-65.333 0 -119.166 21.167 -161.499 63.5s-63.5 96.166 -63.5 161.5z" />
    <glyph glyph-name="afii10105" unicode="&#x458;" horiz-adv-x="1126" 
d="M451 1913l340.002 0.000976562v-2024c0 -216.667 -26.667 -374.334 -80 -473.001c-72.667 -134.667 -207.334 -202 -404.001 -202c-98.667 0 -191.334 34 -278.001 102l106 242c37.333 -30 81 -45 131 -45c103.333 0 162 57.667 176 173c6 49.333 9 117 9 203v2024z
M393.002 2613c0 62 21.999 115.168 65.999 159.501s97 66.5 159 66.5c64.667 0 118.5 -21.5 161.5 -64.5s64.5 -96.833 64.5 -161.5c0 -62 -22.167 -115 -66.5 -159s-97.5 -66 -159.5 -66c-59.333 0 -111.666 22.667 -156.999 68s-68 97.666 -68 156.999z" />
    <glyph glyph-name="afii10107" unicode="&#x45a;" horiz-adv-x="2138" 
d="M623 885v-885h-340v1913h340v-733h893v733h339l-4 -1602h295v-647h-303v336h-327v885h-893z" />
    <glyph glyph-name="afii10108" unicode="&#x45b;" horiz-adv-x="1323" 
d="M405 1352c65.333 88.667 178.668 132.999 340.001 132.999c66 0 138.667 -14.333 218 -43c89.333 -32 149.666 -71.667 180.999 -119c82 -123.333 123 -240 123 -350v-973h-266v787c0 116 -5.33301 202.667 -16 260c-8.66699 46.667 -33.334 89.334 -74.001 128.001
c-55.333 52.667 -124.666 79 -207.999 79c-101.333 0 -169 -18 -203 -54c-12.667 -6 -28.667 -16 -48 -30c-13.333 -17.333 -29 -50 -47 -98v-1072h-283v1932h283v-580z" />
    <glyph glyph-name="afii10109" unicode="&#x45c;" horiz-adv-x="2023" 
d="M623 1176c199.333 0 334.336 43.999 405.003 131.999c34.667 43.333 84 119.333 148 228c60.667 102.667 108.667 176.334 144 221.001c65.333 82 133 136 203 162c60.667 22.667 145.667 35.667 255 39v-291c-114 -25.333 -187.667 -63 -221 -113
c-19.333 -29.333 -48.333 -80.333 -87 -153c-124.667 -236 -247.334 -359 -368.001 -369v-16c150.667 -46.667 277.667 -176.334 381 -389.001c47.333 -96.667 78 -156.667 92 -180c41.333 -67.333 87.333 -115.333 138 -144c42 -23.333 100.333 -35.666 175 -36.999l299 -4
v-598h-303l4 303c-36.667 -8 -76.334 -12 -119.001 -12c-182.667 0 -323.334 69.333 -422.001 208c-44.667 62.667 -93.667 143.667 -147 243c-94 175.333 -148.667 274 -164 296c-82.667 119.333 -170 179 -262 179h-151v-881h-340v1913h340v-737z" />
    <glyph glyph-name="afii10193" unicode="&#x45f;" horiz-adv-x="2023" 
d="M598 295h827v1618h340v-1913h-594v-561h-315v561h-598v1913h340v-1618z" />
    <glyph glyph-name="afii10050" unicode="&#x490;" horiz-adv-x="2028" 
d="M721 2527v-2527h-393v2867h1269v336h336v-676h-1212z" />
    <glyph glyph-name="afii10098" unicode="&#x491;" horiz-adv-x="1573" 
d="M623 1618v-1618h-340v1913h1224v-295h-884z" />
    <glyph glyph-name="glyph103" unicode="&#x492;" horiz-adv-x="2028" 
d="M1933 2527h-1212v-766h442v-344h-442v-1417h-393v1409h-295v344h295v1114h1605v-340z" />
    <glyph glyph-name="glyph102" unicode="&#x493;" horiz-adv-x="1573" 
d="M623 1618v-479h368v-262h-368v-877h-340l4 860h-238v270h238l-4 783h1224v-295h-884z" />
    <glyph glyph-name="glyph105" unicode="&#x49a;" horiz-adv-x="2576" 
d="M721 1364l-0.00292969 -1364h-393v2867h393v-1163c209.333 0 366 49 470 147c63.333 59.333 148.333 192 255 398c116.667 225.333 207.334 376.666 272.001 454c130 156 278.333 234 445 234c38.667 0 78 -4 118 -12v-312c-141.333 0 -255.333 -76 -342 -228
c-37.333 -65.333 -85.666 -160 -144.999 -284c-97.333 -202.667 -196 -343.334 -296 -422.001c-63.333 -50 -143.666 -92.333 -240.999 -127v-12c203.333 -33.333 365.333 -144.333 486 -333c77.333 -120.667 146.333 -241.667 207 -363
c40 -80.667 116 -223.334 228 -428.001c74 -102.667 175.333 -154 304 -154h336v-680h-336v369c-76 -14 -133.333 -21 -172 -21c-228.667 0 -424 157.667 -586 473l-238 463c-170.667 332 -425.667 498 -765 498z" />
    <glyph glyph-name="glyph104" unicode="&#x49b;" horiz-adv-x="2023" 
d="M623 1176c199.333 0 334.336 43.999 405.003 131.999c34.667 43.333 84 119.333 148 228c60.667 102.667 108.667 176.334 144 221.001c65.333 82 133 136 203 162c60.667 22.667 145.667 35.667 255 39v-291c-114 -25.333 -187.667 -63 -221 -113
c-19.333 -29.333 -48.333 -80.333 -87 -153c-124.667 -236 -247.334 -359 -368.001 -369v-16c150.667 -46.667 277.667 -176.334 381 -389.001c47.333 -96.667 78 -156.667 92 -180c41.333 -67.333 87.333 -115.333 138 -144c42 -23.333 100.333 -35.666 175 -36.999l299 -4
v-598h-303l4 303c-36.667 -8 -76.334 -12 -119.001 -12c-182.667 0 -323.334 69.333 -422.001 208c-44.667 62.667 -93.667 143.667 -147 243c-94 175.333 -148.667 274 -164 296c-82.667 119.333 -170 179 -262 179h-151v-881h-340v1913h340v-737z" />
    <glyph glyph-name="glyph107" unicode="&#x4a2;" horiz-adv-x="2699" 
d="M721 1315v-1315h-393v2867h393v-1212h1257v1212h394l4 -2498h368v-762h-368l-4 393h-394v1315h-1257z" />
    <glyph glyph-name="glyph106" unicode="&#x4a3;" horiz-adv-x="2138" 
d="M623 885v-885h-340v1913h340v-733h893v733h339l-4 -1602h295v-647h-303v336h-327v885h-893z" />
    <glyph glyph-name="glyph113" unicode="&#x4ae;" horiz-adv-x="2703" 
d="M1352 1487l757 1380h443l-1004 -1769v-1098h-393v1098l-1003 1769h442z" />
    <glyph glyph-name="glyph112" unicode="&#x4af;" horiz-adv-x="1757" 
d="M879 895l452 825h328l-578 -1061v-659h-394v659l-588 1061h348z" />
    <glyph glyph-name="glyph111" unicode="&#x4b0;" horiz-adv-x="2703" 
d="M1352 1487l757 1380h443l-1004 -1769v-107h287v-286h-287v-705h-393v705h-287v286h287v107l-1003 1769h442z" />
    <glyph glyph-name="glyph110" unicode="&#x4b1;" horiz-adv-x="1757" 
d="M879 988l436 732h344l-615 -1002v-123h149v-207h-144v-388h-341v388h-144v207h144v132l-609 993h338z" />
    <glyph glyph-name="glyph115" unicode="&#x4ba;" horiz-adv-x="2036" 
d="M623 1925c99.333 147.333 271.334 221.001 516.001 221.001c104.667 0 210.334 -26 317.001 -78c113.333 -54.667 196 -124 248 -208c114.667 -186 172 -391 172 -615v-1245h-336v1188c0 73.333 -12.333 161 -37 263c-29.333 120 -63.333 199 -102 237
c-95.333 92.667 -202 139 -320 139c-154.667 0 -261 -32.667 -319 -98c-14.667 -14.667 -39.334 -42 -74.001 -82c-22.667 -28.667 -44.334 -72.334 -65.001 -131.001v-1516h-340l4 2875h336v-950z" />
    <glyph glyph-name="glyph114" unicode="&#x4bb;" horiz-adv-x="1323" 
d="M405 1352c65.333 88.667 178.668 132.999 340.001 132.999c66 0 138.667 -14.333 218 -43c89.333 -32 149.666 -71.667 180.999 -119c82 -123.333 123 -240 123 -350v-973h-266v787c0 116 -5.33301 202.667 -16 260c-8.66699 46.667 -33.334 89.334 -74.001 128.001
c-55.333 52.667 -124.666 79 -207.999 79c-101.333 0 -169 -18 -203 -54c-12.667 -6 -28.667 -16 -48 -30c-13.333 -17.333 -29 -50 -47 -98v-1072h-283v1932h283v-580z" />
    <glyph glyph-name="glyph101" unicode="&#x4d8;" 
d="M2302 1057h-1688c9.33301 -60 34.333 -142 75 -246c140 -358 396.333 -537 769 -537c427.333 0 698.333 216.333 812.999 649c12 45.333 22.333 90 31 134zM2339 1434c0 426 -110.998 748 -332.998 966c-130.667 128.667 -313.334 193 -548.001 193
c-198 0 -373.333 -59 -526 -177l-522 1c222 344 572.667 516 1052 516c478.667 0 828.334 -169.333 1049 -508c166.667 -256 250 -586.333 250 -991c0 -405.333 -83.333 -736 -250 -992c-220.667 -338.667 -570.334 -508 -1049 -508c-474.667 0 -825.334 169.333 -1052 508
c-164 245.333 -246 576 -246 992h2175z" />
    <glyph glyph-name="glyph100" unicode="&#x4d9;" horiz-adv-x="2249" 
d="M1677 647l-1095 -0.000976562c17.333 -63.333 35.666 -115.666 54.999 -156.999c75.333 -160 237 -240 485 -240c291.333 0 476.333 132.333 555 397zM1720 974.999l-0.00195312 13.999c0 200 -49 358.667 -147 476c-105.333 126.667 -255.666 190 -450.999 190
c-169.333 0 -297.666 -43.667 -384.999 -131h-442c84 136 203 243.333 357 322c147.333 74.667 304 112 470 112c378 0 662.333 -154.333 853 -463c92.667 -150 139 -323.333 139 -520c0 -382 -136.333 -669.333 -409 -862c-148.667 -105.333 -343 -158 -583 -158
c-344.667 0 -602 113.333 -772 340c-143.333 190.667 -215 417.334 -215 680.001h1585z" />
    <glyph glyph-name="glyph109" unicode="&#x4e8;" 
d="M164 1434c0 410 82.001 740.333 246.001 991c221.333 338.667 572 508 1052 508c478.667 0 828.334 -169.333 1049 -508c166.667 -256 250 -586.333 250 -991c0 -405.333 -83.333 -736 -250 -992c-220.667 -338.667 -570.334 -508 -1049 -508
c-474.667 0 -825.334 169.333 -1052 508c-164 245.333 -246 576 -246 992zM2326 1655c-11.333 96 -29.667 192.998 -55 290.998c-52.667 203.333 -148.667 361.333 -288 474c-142 115.333 -317 173 -525 173c-198 0 -373.333 -59 -526 -177
c-97.333 -75.333 -179.333 -192.666 -246 -351.999c-50 -119.333 -82 -255.666 -96 -408.999h1736zM2328 1229l-1732 -1c36.667 -389.333 167.667 -662 393 -818c130.667 -90.667 287 -136 469 -136c208 0 383 58 525 174c138.667 112.667 234.667 271 288 475
c26.667 102 45.667 204 57 306z" />
    <glyph glyph-name="glyph108" unicode="&#x4e9;" horiz-adv-x="2249" 
d="M135 975c0 185.333 43.334 353.665 130.001 504.998c89.333 154.667 214.666 274.334 375.999 359.001c150.667 79.333 311 119 481 119c378 0 662.333 -154.333 853 -463c92.667 -150 139 -323.333 139 -520c0 -382 -136.333 -669.333 -409 -862
c-148.667 -105.333 -343 -158 -583 -158c-344.667 0 -602 113.333 -772 340c-143.333 190.667 -215 417.334 -215 680.001zM1704 1147c-24.667 112 -61.667 208.668 -111 290.001c-88 145.333 -245 218 -471 218c-140 0 -259.333 -36.333 -358 -109
c-102 -74 -169.333 -178 -202 -312c-1.33301 -5.33301 -6.5 -17.833 -15.5 -37.5s-13.5 -32.834 -13.5 -39.501s3.33301 -10 10 -10h1161zM1720 819h-1185c17.333 -112 51.333 -221.667 102 -329c75.333 -160 237 -240 485 -240c292 0 477 132.333 555 397
c24 82 38.333 139.333 43 172z" />
    <glyph glyph-name="endash" unicode="&#x2013;" horiz-adv-x="4272" 
d="M373 1229h3526v-307h-3526v307z" />
    <glyph glyph-name="emdash" unicode="&#x2014;" horiz-adv-x="2974" 
d="M197 1266v336h2580v-336h-2580z" />
    <glyph glyph-name="quoteleft" unicode="&#x2018;" horiz-adv-x="1008" 
d="M651 2933l180 -156c-152.667 -143.333 -250.667 -296.333 -294 -459c138.667 -30 208 -109 208 -237c0 -83.333 -29.333 -151.333 -88 -204c-56 -50 -126.333 -75 -211 -75c-180 0 -270 91.667 -270 275c0 176.667 84 379 252 607c72.667 98.667 147 181.667 223 249z
" />
    <glyph glyph-name="quoteright" unicode="&#x2019;" horiz-adv-x="1008" 
d="M471 2417c-59.333 8 -108.999 34.5 -148.999 79.5s-60 97.5 -60 157.5c0 80.667 30 148 90 202c57.333 51.333 127 77 209 77c82.667 0 148.334 -25.167 197.001 -75.5s73 -116.833 73 -199.5c0 -141.333 -51.667 -297.666 -155 -469
c-88.667 -147.333 -195.334 -276.333 -320.001 -387l-180 156c135.333 119.333 233.666 272.333 294.999 459z" />
    <glyph glyph-name="quotesinglbase" unicode="&#x201a;" horiz-adv-x="1122" 
d="M500 -37c-139.333 31.333 -209.001 110.667 -209.001 238c0 83.333 29.333 151 88 203c56.667 50 127 75 211 75c82.667 0 148.334 -25 197.001 -75s73 -116.333 73 -199c0 -136.667 -52.333 -292.667 -157 -468c-92 -154.667 -198 -284 -318 -388l-180 155
c152 142.667 250.333 295.667 295 459z" />
    <glyph glyph-name="quotedblleft" unicode="&#x201c;" horiz-adv-x="1909" 
d="M1352 2458c130.667 -21.333 196 -100.666 196 -238c0 -81.333 -26 -148 -78 -200s-118.667 -78 -200 -78c-79.333 0 -142 27 -188 81c-44 50.667 -66 116.334 -66 197c0 132.667 49.333 287 148 463c86.667 154.667 186 285.667 298 393l168 -156
c-139.333 -139.333 -232 -293.333 -278 -462zM618 2458c58.667 -8 106.667 -35 144 -81c35.333 -44 53 -96.333 53 -157c0 -78.667 -27.5 -144.667 -82.5 -198s-121.833 -80 -200.5 -80c-74.667 0 -136 28 -184 84c-46 54 -69 118.667 -69 194
c0 248.667 148.667 534 446 856l172 -156c-137.333 -126.667 -230.333 -280.667 -279 -462z" />
    <glyph glyph-name="quotedblright" unicode="&#x201d;" horiz-adv-x="1905" 
d="M557 2560c-131.333 21.333 -197.001 100.666 -197.001 238c0 80 26.5 146.333 79.5 199s119.5 79 199.5 79c79.333 0 142 -27 188 -81c44 -50.667 66 -116.334 66 -197c0 -242.667 -149 -528 -447 -856l-167 155c124.667 126 217.334 280.333 278.001 463zM1290 2560
c-130.667 22 -196 101.333 -196 238c0 82.667 26.333 149.667 79 201s120.334 77 203.001 77c78.667 0 140.667 -27.333 186 -82c42.667 -50.667 64 -116 64 -196c0 -180 -79.333 -383 -238 -609c-69.333 -98.667 -138.666 -181 -207.999 -247l-168 155
c49.333 47.333 95.666 106 138.999 176c73.333 118.667 119.666 214.334 138.999 287z" />
    <glyph glyph-name="daggerdbl" unicode="&#x2021;" horiz-adv-x="2703" 
d="M1352 1487l757 1380h443l-1004 -1769v-1098h-393v1098l-1003 1769h442z" />
    <glyph glyph-name="bullet" unicode="&#x2022;" horiz-adv-x="1475" 
d="M246 1434c0 186.667 81.334 328 244.001 424c75.333 44.667 157.666 67 246.999 67c187.333 0 329 -81 425 -243c44.667 -75.333 67 -158 67 -248c0 -190 -82.333 -332.333 -247 -427c-75.333 -43.333 -157 -65 -245 -65c-189.333 0 -331.333 82.333 -426 247
c-43.333 75.333 -65 157 -65 245z" />
    <glyph glyph-name="perthousand" unicode="&#x2030;" horiz-adv-x="1757" 
d="M879 895l452 825h328l-578 -1061v-659h-394v659l-588 1061h348z" />
    <glyph glyph-name="afii61352" unicode="&#x2116;" horiz-adv-x="4268" 
d="M2220 676v1429c0 508 165.333 762 496 762c26.667 0 59.334 -2.66699 98 -8v-311c-99.333 -14 -168 -51.333 -206 -112c-32 -50.667 -48 -129.334 -48 -236.001v-2200h-340l-1208 2105v-1425c0 -236.667 -57.333 -415.667 -172 -537c-90 -95.333 -237.667 -143 -443 -143
v328c102.667 20.667 173.667 57.334 213 110.001c36 48.667 54 126.667 54 234v2195h344zM2785 1257c0 310 96 514.333 288 613c82 42 166.333 63 253 63c181.333 0 320.666 -69.667 418 -209c84.667 -121.333 127 -277 127 -467c0 -186.667 -43 -341 -129 -463
c-98 -138.667 -236.667 -208 -416 -208c-204 0 -356.667 92.333 -458 277c-55.333 100.667 -83 232 -83 394zM3076 1253c0 -275.333 83.333 -413 250 -413c169.333 0 254 137.667 254 413c0 276 -84.667 414 -254 414c-166.667 0 -250 -138 -250 -414zM2839 0v328h974v-328
h-974z" />
    <glyph glyph-name="trademark" unicode="&#x2122;" horiz-adv-x="2576" 
d="M479 2662h-307v205h872v-205h-303v-741h-262v741zM1815 2302l200 565h389v-946h-262v659l-229 -659h-193l-229 659v-659h-262v946h385z" />
    <glyph glyph-name="NULL" horiz-adv-x="0" 
 />
    <glyph glyph-name="nonmarkingreturn" horiz-adv-x="1438" 
 />
    <glyph glyph-name="u0000" horiz-adv-x="4096" 
 />
    <glyph glyph-name="u0017" horiz-adv-x="4096" 
 />
    <glyph glyph-name="c142" horiz-adv-x="2036" 
d="M623 1925c99.333 147.333 271.334 221.001 516.001 221.001c104.667 0 210.334 -26 317.001 -78c113.333 -54.667 196 -124 248 -208c114.667 -186 172 -391 172 -615v-1245h-336v1188c0 73.333 -12.333 161 -37 263c-29.333 120 -63.333 199 -102 237
c-95.333 92.667 -202 139 -320 139c-154.667 0 -261 -32.667 -319 -98c-14.667 -14.667 -39.334 -42 -74.001 -82c-22.667 -28.667 -44.334 -72.334 -65.001 -131.001v-1516h-340l4 2875h336v-950z" />
    <glyph glyph-name="glyph102" horiz-adv-x="2576" 
d="M721 1364l-0.00292969 -1364h-393v2867h393v-1163c209.333 0 366 49 470 147c63.333 59.333 148.333 192 255 398c116.667 225.333 207.334 376.666 272.001 454c130 156 278.333 234 445 234c38.667 0 78 -4 118 -12v-312c-141.333 0 -255.333 -76 -342 -228
c-37.333 -65.333 -85.666 -160 -144.999 -284c-97.333 -202.667 -196 -343.334 -296 -422.001c-63.333 -50 -143.666 -92.333 -240.999 -127v-12c203.333 -33.333 365.333 -144.333 486 -333c77.333 -120.667 146.333 -241.667 207 -363
c40 -80.667 116 -223.334 228 -428.001c74 -102.667 175.333 -154 304 -154h336v-680h-336v369c-76 -14 -133.333 -21 -172 -21c-228.667 0 -424 157.667 -586 473l-238 463c-170.667 332 -425.667 498 -765 498z" />
    <glyph glyph-name="glyph103" horiz-adv-x="2028" 
d="M1933 2527h-1212v-766h442v-344h-442v-1417h-393v1409h-295v344h295v1114h1605v-340z" />
    <glyph glyph-name="glyph110" horiz-adv-x="2023" 
d="M623 1176c199.333 0 334.336 43.999 405.003 131.999c34.667 43.333 84 119.333 148 228c60.667 102.667 108.667 176.334 144 221.001c65.333 82 133 136 203 162c60.667 22.667 145.667 35.667 255 39v-291c-114 -25.333 -187.667 -63 -221 -113
c-19.333 -29.333 -48.333 -80.333 -87 -153c-124.667 -236 -247.334 -359 -368.001 -369v-16c150.667 -46.667 277.667 -176.334 381 -389.001c47.333 -96.667 78 -156.667 92 -180c41.333 -67.333 87.333 -115.333 138 -144c42 -23.333 100.333 -35.666 175 -36.999l299 -4
v-598h-303l4 303c-36.667 -8 -76.334 -12 -119.001 -12c-182.667 0 -323.334 69.333 -422.001 208c-44.667 62.667 -93.667 143.667 -147 243c-94 175.333 -148.667 274 -164 296c-82.667 119.333 -170 179 -262 179h-151v-881h-340v1913h340v-737z" />
    <glyph glyph-name="glyph290" horiz-adv-x="1438" 
 />
    <glyph glyph-name="glyph291" horiz-adv-x="1438" 
 />
  </font>
</defs>
</svg>
